<svg xmlns="http://www.w3.org/2000/svg" xmlns:xlink="http://www.w3.org/1999/xlink" viewBox="0 0 1200 1000" id="influencer-marketing-on-food-products"><defs><symbol id="a" viewBox="0 0 654.291 559.725"><path fill="#f5f8fc" d="m.36904,214.54009C-5.04943,121.57472,49.83422,37.51331,123.18783,10.17656c47.11567-17.55864,107.71023-12.00123,150.81425,13.62424,65.16568,38.7412,41.45252,94.27771,102.04796,129.02952,60.75248,34.84189,107.03717-8.10864,177.90663,25.64562,75.5436,35.98051,94.30774,118.76918,96.62949,129.83095,17.84238,85.00815-30.16822,175.19348-113.788,220.39204-118.21531,63.89828-274.08783,19.77125-319.69008-48.08554-25.30433-37.65321-11.01849-74.22446-51.47552-104.18533-37.84037-28.02309-73.39338-13.10339-106.56336-38.46843C37.36032,321.35891,6.6906,289.8741.36904,214.54009Z"></path></symbol><symbol id="b" viewBox="0 0 365.434 599.703"><rect width="365.434" height="599.703" fill="#b8c2d8" rx="44.866" ry="44.866"></rect><path fill="#f9f9ff" d="m312.92464,9.13101h-37.5713c-4.00686,0-7.80526,1.78573-10.36155,4.87123l-4.94216,5.96533c-4.19694,5.06573-10.55104,8.01467-17.2693,8.01467h-116.25681c-5.86541,0-11.49057-2.24995-15.63792-6.25475l-9.13439-8.82036c-2.50855-2.4223-5.85952-3.77612-9.34669-3.77612h-39.89479c-24.43813,0-44.24915,19.81102-44.24915,44.24915v493.82623c0,24.43813,19.81102,44.24915,44.24915,44.24915h260.41499c24.43813,0,44.24915-19.81102,44.27372-40.28366V57.34571c-.02458-28.40365-19.83563-48.2147-44.2738-48.2147Z"></path><rect width="327.61" height="365.129" x="19.217" y="106.458" fill="#fff"></rect><path fill="#b8c2d8" stroke="#000" stroke-miterlimit="10" stroke-width=".642" d="m340.31344,500.32397l-5.59287-6.81301c-.3038-.32037-.80108-.32037-1.10488,0l-5.59287,5.8979c-.48699.51354-1.3281.15515-1.3281-.5659v-17.09765c0-.893.74662-1.61693,1.66761-1.61693h11.6116c.92099,0,1.66761.72393,1.66761,1.61693v18.01276c0,.72105-.84112,1.07944-1.3281.5659Z"></path><path fill="#f90065" d="m40.5216,499.86183c-.8154.00496-1.59925-.31481-2.1785-.88873l-6.95624-6.90678c-2.7453-2.71905-2.76658-7.14878-.04753-9.89408,2.44078-2.46434,6.31865-2.76836,9.11365-.71449,3.0965-2.31119,7.48029-1.67457,9.79148,1.42193,2.07466,2.77961,1.79957,6.65964-.64651,9.11873l-6.90454,6.95734c-.5747.57873-1.35621.90477-2.17181.90606Z"></path><rect width="233.658" height="9.761" x="29.284" y="519.478" fill="#b8c2d8"></rect><rect width="102.797" height="9.761" x="29.284" y="537.475" fill="#b8c2d8"></rect><rect width="79.005" height="9.761" x="56.737" y="63.753" fill="#b8c2d8"></rect><rect width="79.005" height="9.761" x="267.518" y="63.753" fill="#b8c2d8"></rect><rect width="54.602" height="9.761" x="56.737" y="78.395" fill="#b8c2d8"></rect><circle cx="33.859" cy="75.954" r="12.201" fill="#b8c2d8"></circle><polygon fill="#fff" stroke="#000" stroke-linecap="round" stroke-linejoin="round" stroke-width=".763" points="91.664 489.127 97.459 491.567 99.595 498.583 102.95 494.923 108.829 499.574 112.711 480.586 91.664 489.127"></polygon><polyline fill="#fff" stroke="#000" stroke-linecap="round" stroke-linejoin="round" stroke-width=".763" points="97.459 491.567 108.136 485.161 101.12 493.397 102.95 494.923"></polyline><path fill="#fff" stroke="#000" stroke-linecap="round" stroke-linejoin="round" stroke-width=".763" d="m80.07224,489.88957c0-4.96981-4.02878-8.99859-8.99859-8.99859s-8.99859,4.02878-8.99859,8.99859c0,4.68347,3.57838,8.52976,8.14999,8.95756l9.8472.04103-2.63564-2.63564c1.62848-1.6284,2.63564-3.87805,2.63564-6.36296Z"></path><circle cx="243.572" cy="16.625" r="5.338"></circle><rect width="104.323" height="5.796" x="123.54" y="13.727"></rect></symbol><symbol id="d" viewBox="0 0 807.803 553.071"><path fill="#f90065" d="m143.03827,80.08255l-126.39163.00778c-8.98366.00055-16.2659,7.28369-16.26535,16.26731l.00205,33.35539c.00055,8.98363,7.28369,16.26586,16.26735,16.26531l86.47608-.00532,49.16708,16.77402-5.50079-17.21624c7.1745-1.6946,12.51509-8.13542,12.51461-15.82755l-.00205-33.35539c-.00055-8.98363-7.28369-16.26586-16.26735-16.26531Z"></path><path d="m152.88758,163.35245l-49.82397-16.99814-86.41293.00532C7.47112,146.36019.00262,138.89261.00205,129.71305L0,96.35766c-.00056-9.17956,7.46702-16.64807,16.64658-16.64863l126.39155-.00778c9.17971-.00056,16.64822,7.46702,16.64878,16.64658l.00205,33.35539c.00047,7.61833-5.08139,14.18022-12.40872,16.09922l5.60733,17.55001ZM16.64663,80.47162c-8.75909.00054-15.88458,7.1269-15.88404,15.88599l.00205,33.35539c.00054,8.75909,7.1269,15.88458,15.88599,15.88404l86.53923-.00532.05988.0204,48.45038,16.52949-5.39549-16.88722.40095-.0946c7.19597-1.69989,12.22124-8.05579,12.22079-15.45651l-.00205-33.35539c-.00054-8.75909-7.12705-15.88458-15.88614-15.88404l-126.39155.00778Z"></path><path fill="#fff" d="M38.48226 128.01902c-1.40384.0034-2.75131-.55208-3.74493-1.5438l-11.93236-11.93473c-4.70918-4.69849-4.71785-12.32491-.01937-17.03409 4.21764-4.22724 10.89576-4.72616 15.69471-1.17254 5.34557-3.95943 12.88876-2.83574 16.84819 2.50983 3.55423 4.79851 3.05613 11.47671-1.17061 15.69487l-11.93089 11.93428c-.99306.99273-2.34058 1.5491-3.74474 1.54618zM71.58629 110.56235l-.00044-7.15973c2.91927-.41722 5.69969-1.59897 7.71503-4.27516l6.04772-.00037.0015 24.3285-9.59258.00059-.00085-13.86727c-1.42506.5908-2.88469.90382-4.17037.97346zM96.78378 116.39955c2.22463-.00014 3.54543-.52152 3.54534-2.01588-.0001-1.56406-1.49495-2.3982-3.64987-2.39807-1.84184.00011-3.68366.34786-5.00444 1.28629l-1.5294-.76458 2.11954-13.38065 16.16101-.00099.00042 6.88151-10.46122.00064-.34752 1.94612c.86893-.13887 1.80727-.20863 2.78017-.20869 5.35245-.00033 9.24542 2.81477 9.24572 7.71517.00031 4.96996-4.10079 8.61949-11.36448 8.61993-3.92735.00024-8.55005-1.18119-10.98276-3.82242l3.68332-5.83913c1.28635 1.11223 3.85807 1.98087 5.80417 1.98075zM121.73733 98.42957c5.80405-.00036 10.04435 2.81472 10.04468 8.09746.00022 3.61457-1.98058 6.08225-6.60298 9.76651l7.09033-.00044.00044 7.12488-21.54831.00133-.00006-1.04276 6.74226-7.02089c3.788-3.92759 5.07389-5.42202 5.0738-6.77756s-.97334-2.25897-2.46784-2.25888c-1.56391.0001-2.67616 1.04277-2.95398 2.81522l-7.0556-2.11963c.69495-5.14367 4.83062-8.58483 11.67727-8.58525z"></path><rect width="140.012" height="65.888" x="508.888" y=".385" fill="#f90065" rx="16.266" ry="16.266"></rect><path d="m632.63527,66.6506l-107.4794.00661c-9.17941.00056-16.64792-7.46702-16.64848-16.64658l-.00205-33.35524c-.00056-9.17956,7.46702-16.64822,16.64643-16.64878L632.63117,0c9.17971-.00056,16.64822,7.46717,16.64878,16.64673l.00205,33.35524c.00056,9.17956-7.46702,16.64807-16.64673,16.64863ZM525.15181.7692c-8.75909.00054-15.88443,7.12705-15.88389,15.88614l.00205,33.35524c.00054,8.75909,7.12675,15.88458,15.88584,15.88404l107.4794-.00661c8.75909-.00054,15.88473-7.1269,15.88419-15.88599l-.00205-33.35524c-.00054-8.75909-7.12705-15.88473-15.88614-15.88419l-107.4794.00661Z"></path><path fill="#fff" d="M589.03443 19.90293c5.80434-.00036 10.04465 2.81472 10.04498 8.09746.00022 3.61457-1.98088 6.08225-6.60298 9.76651l7.09003-.00044.00044 7.12488-21.54831.00133-.00006-1.04276 6.74226-7.02089c3.788-3.92759 5.07389-5.42202 5.0738-6.77756s-.97334-2.25897-2.46784-2.25888c-1.56391.0001-2.67616 1.04277-2.95398 2.81522l-7.0553-2.11963c.69466-5.14367 4.83032-8.58483 11.67697-8.58525zM613.18985 19.90144c7.12488-.00044 11.95605 5.24745 11.95651 12.75452.00047 7.61133-4.83005 12.89437-11.95493 12.89481-7.12488.00044-11.9215-5.28201-11.92196-12.89334-.00046-7.47237 4.79551-12.75555 11.92039-12.75599zm.0359 16.99539c1.98095-.00012 2.98861-1.6338 2.98845-4.24032-.00016-2.64137-1.00802-4.24007-2.98897-4.23995-1.98125.00012-2.98891 1.63365-2.98875 4.24032.00016 2.64137 1.00802 4.24007 2.98927 4.23995zM564.45673 26.20623c-.96871-1.16452-2.40575-1.83707-3.92051-1.83484l-7.76249.00048.82378-2.20794c.5776-1.45932.67295-3.0652.27209-4.58261-.85267-3.02863-3.61379-5.12197-6.76016-5.12521-.67424-.00031-1.28565.39579-1.56095 1.01126l-4.84578 10.90865.00136 22.12652 17.66478-.00109c2.4687.00007 4.58401-1.76578 5.02494-4.19478l2.1663-11.91625c.27291-1.48942-.13149-3.02302-1.10335-4.18419z"></path><path fill="#112e5b" d="m540.7044,24.37261l-4.00041.00025c-2.8193.00299-5.10395,2.28792-5.10659,5.10722l.00073,11.91611c.00299,2.8193,2.28792,5.10395,5.10722,5.10659l4.00041-.00025-.00136-22.12652v-.0034Z"></path><path d="M425.02924 473.576c-.11498 0-.22431-.06761-.27198-.18035l-3.76734-8.91868c-.06346-.15013.00683-.32336.15696-.38682.14954-.06331.32321.00653.38697.15711l3.76734 8.91868c.06346.15013-.00683.32336-.15696.38682-.03753.01579-.07656.02324-.11498.02324zM453.85884 473.82669c-.03694 0-.07477-.007-.11111-.02174-.15103-.06136-.22373-.23353-.16237-.38456l3.64232-8.97037c.06136-.15148.23442-.22343.38456-.16237.15103.06136.22373.23353.16237.38456l-3.64232 8.97037c-.04646.11469-.15698.1841-.27345.18411zM474.06702 494.38953c-.11498 0-.22431-.06761-.27198-.18035-.06346-.15013.00683-.32336.15696-.38682l8.91853-3.76734c.14924-.06316.32321.00653.38697.15711.06346.15013-.00683.32336-.15696.38682l-8.91853 3.76734c-.03753.01579-.07656.02324-.11498.02324zM482.7867 526.86145c-.03724 0-.07477-.007-.11111-.02174l-8.97052-3.64262c-.15103-.06136-.22373-.23353-.16237-.38456.06106-.15118.23472-.22328.38456-.16237l8.97052 3.64262c.15103.06136.22373.23353.16237.38456-.04646.11454-.15698.1841-.27345.18411zM457.02098 552.34569c-.11498 0-.22431-.06761-.27198-.18035l-3.76734-8.91868c-.06346-.15013.00683-.32336.15696-.38682.14924-.06316.32321.00668.38697.15711l3.76734 8.91868c.06346.15013-.00683.32336-.15696.38682-.03753.01579-.07656.02324-.11498.02324zM420.78173 552.1467c-.03694 0-.07477-.007-.11111-.02174-.15103-.06136-.22373-.23353-.16237-.38456l1.46092-3.59828c.06136-.15118.23442-.22313.38456-.16237.15103.06136.22373.23353.16237.38456l-1.46092 3.59828c-.04646.11454-.15698.1841-.27345.18411z"></path><path d="M422.24264 548.54842c-.03724 0-.07477-.007-.11111-.02174-.15103-.06136-.22373-.23353-.16237-.38456l2.1814-5.37209c.06136-.15118.23472-.22313.38456-.16237.15103.06136.22373.23353.16237.38456l-2.1814 5.37209c-.04646.11454-.15698.1841-.27345.18411zM395.29733 526.38097c-.11498 0-.22431-.06761-.27198-.18035-.06346-.15013.00683-.32336.15696-.38682l4.45926-1.88367c.14954-.06346.32321.00653.38697.15711.06346.15013-.00683.32336-.15696.38682l-4.45926 1.88367c-.03753.01579-.07656.02324-.11498.02324z"></path><path d="M399.75659 524.4973c-.11498 0-.22431-.06761-.27198-.18035-.06346-.15013.00683-.32336.15696-.38682l4.45926-1.88367c.14983-.06331.32321.00653.38697.15711.06346.15013-.00683.32336-.15696.38682l-4.45926 1.88367c-.03753.01579-.07656.02324-.11498.02324zM404.46669 493.78419c-.03724 0-.07477-.007-.11111-.02174l-7.05267-2.86376c-.15103-.06136-.22373-.23353-.16237-.38456.06136-.15118.23472-.22328.38456-.16237l7.05267 2.86376c.15103.06136.22373.23353.16237.38456-.04646.11454-.15698.1841-.27345.18411zM439.20853 470.83278c-.16116 0-.29283-.12941-.29522-.29117l-.05476-3.93763c-.0021-.16294.12807-.29685.29102-.29925h.00417c.16116-.00001.29283.12941.29522.29117l.05476 3.93763c.0021.16294-.12807.29685-.29102.29925h-.00417zM465.82459 481.91316c-.07417 0-.14835-.02784-.20585-.08354-.11678-.11379-.11947-.30056-.00569-.41749l5.73606-5.89764c.11379-.11678.30056-.11917.41734-.00583.11678.11379.11947.30056.00569.41749l-5.73606 5.89764c-.05779.05943-.13464.08937-.21149.08938zM476.81025 508.56868c-.16116 0-.29283-.12941-.29522-.29117-.0021-.16294.12807-.29685.29102-.29925l4.84037-.06732h.00417c.16116-.00001.29283.12941.29522.29117.0021.16294-.12807.29685-.29102.29925l-4.84037.06732h-.00417zM468.54001 537.91798c-.07417 0-.14835-.02784-.20585-.08354l-2.81014-2.7331c-.11678-.11379-.11947-.30056-.00569-.41749.11379-.11663.30026-.11917.41734-.00583l2.81014 2.7331c.11678.11379.11947.30056.00569.41749-.05779.05943-.13464.08937-.21149.08938zM439.1704 553.07096c-.16116 0-.29283-.12941-.29522-.29117l-.09605-6.90056c-.0021-.16294.12807-.29685.29102-.29925h.00417c.16116-.00001.29283.12941.29522.29117l.09605 6.90056c.0021.16294-.12807.29685-.29102.29925h-.00417zM410.38601 537.22048c-.07417 0-.14835-.02784-.20585-.08354-.11678-.11379-.11947-.30056-.00569-.41749l2.07227-2.13047c.11379-.11663.30056-.11917.41734-.00583.11678.11379.11947.30056.00569.41749l-2.07227 2.13047c-.05779.05943-.13464.08937-.21149.08938zM395.63314 508.51558c-.16116 0-.29283-.12941-.29522-.29117-.0021-.16294.12807-.29685.29102-.29925l5.83949-.08109h.00417c.16116-.00001.29283.12941.29522.29117.0021.16294-.12807.29685-.29102.29925l-5.83949.08109h-.00417zM412.55302 481.81828c-.07417 0-.14835-.02784-.20585-.08354l-3.82004-3.71532c-.11678-.11379-.11947-.30056-.00569-.41749.11379-.11663.30056-.11902.41734-.00583l3.82004 3.71532c.11678.11379.11947.30056.00569.41749-.05779.05943-.13464.08937-.21149.08938zM425.02924 473.576c-.11498 0-.22431-.06761-.27198-.18035l-3.76734-8.91868c-.06346-.15013.00683-.32336.15696-.38682.14954-.06331.32321.00653.38697.15711l3.76734 8.91868c.06346.15013-.00683.32336-.15696.38682-.03753.01579-.07656.02324-.11498.02324zM453.85884 473.82669c-.03694 0-.07477-.007-.11111-.02174-.15103-.06136-.22373-.23353-.16237-.38456l3.64232-8.97037c.06136-.15148.23442-.22343.38456-.16237.15103.06136.22373.23353.16237.38456l-3.64232 8.97037c-.04646.11469-.15698.1841-.27345.18411zM474.06702 494.38953c-.11498 0-.22431-.06761-.27198-.18035-.06346-.15013.00683-.32336.15696-.38682l8.91853-3.76734c.14924-.06316.32321.00653.38697.15711.06346.15013-.00683.32336-.15696.38682l-8.91853 3.76734c-.03753.01579-.07656.02324-.11498.02324zM482.7867 526.86145c-.03724 0-.07477-.007-.11111-.02174l-8.97052-3.64262c-.15103-.06136-.22373-.23353-.16237-.38456.06106-.15118.23472-.22328.38456-.16237l8.97052 3.64262c.15103.06136.22373.23353.16237.38456-.04646.11454-.15698.1841-.27345.18411zM457.02098 552.34569c-.11498 0-.22431-.06761-.27198-.18035l-3.76734-8.91868c-.06346-.15013.00683-.32336.15696-.38682.14924-.06316.32321.00668.38697.15711l3.76734 8.91868c.06346.15013-.00683.32336-.15696.38682-.03753.01579-.07656.02324-.11498.02324zM420.78173 552.1467c-.03694 0-.07477-.007-.11111-.02174-.15103-.06136-.22373-.23353-.16237-.38456l3.64232-8.97037c.06136-.15133.23472-.22313.38456-.16237.15103.06136.22373.23353.16237.38456l-3.64232 8.97037c-.04646.11469-.15698.1841-.27345.18411z"></path><path d="M395.29733 526.38097c-.11498 0-.22431-.06761-.27198-.18035-.06346-.15013.00683-.32336.15696-.38682l8.91853-3.76734c.14983-.06331.32321.00653.38697.15711.06346.15013-.00683.32336-.15696.38682l-8.91853 3.76734c-.03753.01579-.07656.02324-.11498.02324zM404.46669 493.78419c-.03694 0-.07477-.007-.11111-.02174l-8.97052-3.64247c-.15103-.06136-.22373-.23353-.16237-.38456.06136-.15118.23383-.22358.38456-.16237l8.97052 3.64247c.15103.06136.22373.23353.16237.38456-.04646.11469-.15698.1841-.27345.18411z"></path><path fill="#f90065" d="m447.37684,527.70275c-1.60596.68284-3.41765.69844-5.03512.04333l-19.43637-7.89603c-7.66506-3.1029-11.36343-11.83205-8.26053-19.49711,2.78535-6.88062,10.19146-10.68175,17.40561-8.93329,4.20651-7.11944,13.388-9.48084,20.50745-5.27433,6.39084,3.77602,9.05029,11.66441,6.25014,18.53903l-7.8907,19.43671c-.65708,1.6171-1.93109,2.90594-3.54048,3.5817Z"></path><path fill="#ffcc83" d="m755.82798,144.21569c-16.76426,9.45486-22.68974,30.70981-13.23488,47.47407,9.45486,16.76426,30.70981,22.68974,47.47407,13.23488,16.76426-9.45486,22.68975-30.70981,13.23488-47.47407-9.45486-16.76426-30.70981-22.68974-47.47407-13.23488Zm32.6853,29.57754c3.77376,6.70679,1.40531,15.20252-5.29395,18.98963-6.70679,3.77376-15.20252,1.40531-18.98963-5.29395-.94584-1.67485-.35489-3.79958,1.31997-4.74542l.00352-.00199,18.21269-10.27176c1.67485-.94584,3.79958-.35489,4.74542,1.31997l.00199.00352Z"></path><circle cx="778.63" cy="163.363" r="3.485" fill="#112e5b"></circle><circle cx="760.417" cy="173.635" r="3.485" fill="#112e5b"></circle><path fill="#112e5b" d="m783.21933,192.78285c-6.70673,3.77372-15.20255,1.40524-18.98963-5.29395-.94589-1.67494-.35492-3.79956,1.32003-4.74546l.00346-.00195,18.21269-10.27176c1.67494-.94589,3.79956-.35492,4.74546,1.32003l.00195.00346c3.77372,6.70673,1.40525,15.20255-5.29395,18.98963Z"></path></symbol><symbol id="c" viewBox="0 0 502.143 549.219"><path fill="#ffcc83" d="m381.84164,127.91833s14.26495-17.5938-1.4265-37.56515c0,0,9.98547-7.13262,9.50997-13.78974-.4755-6.65712-16.16694-4.75508-16.16694-4.75508,0,0-9.98547-58.96302-76.07974-27.10397,0,0,12.36296-23.77541-.951-21.39787-13.31395,2.37754-24.25042,26.15295-23.77492,35.18761,0,0-33.76038-9.03466-37.56437-.95102-3.80399,8.08364,10.46096,13.31423,10.46096,13.31423,0,0-29.4809,8.55915-19.49543,42.32023,0,0-14.26495,29.48151,27.10341,22.82439,41.36836-6.65712,128.38456-8.08364,128.38456-8.08364Z"></path><path fill="#fad0c9" d="m186.10258,536.17307l-14.77117,3.77591c-27.85215,7.11975-56.20245-9.68734-63.32192-37.53957l-40.71246-159.27189c-7.11938-27.85183,9.68743-56.20164,37.5392-63.3213l14.77117-3.77591c27.85215-7.11975,56.20245,9.68734,63.32192,37.53957l40.71246,159.27189c7.11938,27.85183-9.68743,56.20164-37.5392,63.3213Z"></path><path fill="#ffcc83" d="m356.31661,192.14699c1.44054,1.2139,3.36757,2.45912,5.0692,1.65095,1.59288-.75652,1.94437-2.85334,1.88914-4.61591-.15056-4.80501-1.80618-9.55205-4.67644-13.40848,4.37506,3.88296,8.92388,7.86727,14.49412,9.65347s12.48129.77619,15.94834-3.93533c3.48107-4.73058,2.25788-11.87809-1.81532-16.10953s-10.30558-5.8357-16.16832-5.48426c-8.29539.49726-16.17181,4.83296-21.36713,11.26434-1.96074,2.42724-5.50485,6.85617-4.32641,10.13732,1.41773,3.94739,7.82725,8.21361,10.95282,10.84744Z"></path><path fill="#f90065" d="m493.10826,307.18493l-24.70688,134.53075-2.27766,12.39653-6.52371,35.52044v.00476l-10.94621,59.5812H102.60522l8.20711-38.68734v-.00476l31.94395-150.66001,15.43466-72.80036,1.10795-5.21631,2.39165-11.28856,1.38865-6.543,7.36071-1.6738,18.09726-4.12262,17.0657-3.88498,2.9577-.67518,10.82711-2.4631c.00952,0,.01904-.00476.02368-.00476l1.12211-.25679h.00488l18.17829-4.14166h143.12501s17.51729,4.58861,40.30801,14.56476c10.76047,4.7076,22.70505,10.61338,34.53075,17.80788,8.86335,5.39219,17.66472,11.50252,25.86242,18.36407,0,.00476.00464.00476.00464.00476,2.48197,2.08279,4.90242,4.22733,7.26087,6.44316,1.11747,1.05561,2.21566,2.12075,3.29993,3.20492Z"></path><path fill="#f9f9ff" d="m466.12373,454.11221l-6.52371,35.52044v.00476l-10.94621,59.5812H102.60522l8.20711-38.68734v-.00476l31.94395-150.66001,15.43466-72.80036,1.10795-5.21631,2.39165-11.28856,1.38865-6.543,7.36071-1.6738,18.09726-4.12262,17.0657-3.88498-.51334,1.96867-5.66326,21.72594-5.17337,19.83819-7.74589,29.70034v.00464l-1.99719,7.66525,3.97998.08556,62.12382,1.31717,32.22453.68482,80.93456,1.71652s29.49042-67.15602,58.37694-77.68383c10.76047,4.7076,22.70505,10.61338,34.53075,17.80788-9.45773,3.17636-20.65562,9.41497-30.98842,19.40064-.07592.0714-.15208.14744-.228.21883l-.00488.00476c-6.07677,5.91529-11.84938,13.13348-16.78036,21.79246l-.00464.00952c-1.36009,2.38706-2.65332,4.88348-3.87062,7.48925-8.08347,17.29429-12.86214,39.52906-11.07438,67.54597.73229,11.45974,3.21913,20.80824,7.00896,28.38782,7.07536,14.16065,18.66331,22.16349,31.76784,26.32419h.00488c8.4401,2.68658,17.51264,3.77551,26.3948,3.88487,2.42509.03332,4.83601-.00952,7.21815-.11412Z"></path><path d="m343.26447,406.71537c.32922-2.96429,3.01826-5.10793,5.99395-4.90724,9.49237.64018,35.43397,5.88367,74.42707,40.42113,49.92733,44.22226,36.13788,57.06099,21.39743,53.25692-14.74045-3.80407-53.25582-24.25092-69.42276-41.36922-14.14608-14.97851-33.79145-34.83425-32.39569-47.4016Z"></path><path fill="#112e5b" d="m108.66783,267.88182s-54.92006-17.75788-92.00894,6.96855c-37.08887,24.72643-6.65698,56.58548,36.61337,60.38954,43.27035,3.80407,55.39556-67.35809,55.39556-67.35809Z"></path><path fill="#fad0c9" d="m381.84164,246.79538s-30.90739,37.56515-106.51164,40.89371c-75.60424,3.32856-60.38829-35.18761-60.38829-35.18761,23.93187-6.20541,36.29947-21.81162,42.6855-36.70445,7.30847-17.0613,6.76633-33.19526,6.76633-33.19526l29.54266-12.80064,56.04705-24.289c-8.08347,52.3059,31.85839,101.28325,31.85839,101.28325Z"></path><path d="m340.47329,167.86102s-34.23588,82.73843-65.14328,71.32623c-10.53712-3.88962-15.60577-13.03364-17.7028-23.39022,7.30847-17.0613,6.76633-33.19526,6.76633-33.19526l29.54266-12.80064,46.53708-1.94011Z"></path><path fill="#fad0c9" d="m386.83618,126.08394c-4.89541-6.83492-12.82416-10.35196-21.20381-10.3127-6.90851-35.61437-32.41448-55.61533-63.62197-52.54861-33.78285,3.3198-61.43554,32.39918-57.37808,73.69034,4.05746,41.29104,11.51134,74.35482,45.2943,71.035,18.91775-1.85903,42.07518-14.7366,58.08368-32.95669,10.88623-.82516,22.9569-4.98859,30.17665-10.15982,13.28735-9.51736,17.15985-26.86523,8.64922-38.74753Z"></path><path d="m380.92438,148.82462c-4.13275-6.92459-10.39688-12.69245-17.63895-16.24088l1.06337-2.16951c7.65673,3.75182,14.28027,9.85031,18.65031,17.17193l-2.07473,1.23846Z"></path><polygon points="373.333 151.363 371.033 150.621 374.553 139.704 376.852 140.445 373.333 151.363"></polygon><ellipse cx="304.242" cy="127.868" rx="3.841" ry="5.357" transform="rotate(-5.612 304.242 127.868)"></ellipse><ellipse cx="264.399" cy="130.492" rx="3.841" ry="5.357" transform="rotate(-5.612 264.399 130.492)"></ellipse><path d="M268.10311 157.81911l-1.07823-2.16208c6.18334-3.08407 10.9829-8.61209 13.16815-15.16704 2.18525-6.55542 1.66285-13.858-1.43346-20.0352l2.16017-1.08243c3.38142 6.74627 3.95212 14.72195 1.56534 21.8815-2.38631 7.15932-7.62841 13.19698-14.38197 16.56524zM285.69933 174.41755l-.32133-2.39472c9.73425-1.30509 18.57462-8.76463 21.49773-18.14059l2.30691.7193c-3.24444 10.4043-12.6815 18.36767-23.4833 19.81602zM328.26387 193.93521l-1.35684-1.99908c7.57129-5.13818 14.36618-11.10757 20.19614-17.74217l.32505-.3701.49082-.03715c10.49579-.79569 22.37675-4.78921 29.56448-9.93738 6.18473-4.4298 10.45446-10.7398 12.02352-17.76794 1.55744-6.97845.26004-13.83037-3.65307-19.29384-4.46801-6.23849-11.78112-9.80875-20.08052-9.80875-.04504 0-.09008.00023-.13559.00046l-1.00068.00464-.19085-.98259c-6.67184-34.39564-31.13121-54.64142-62.31815-51.57639l-.23589-2.40447c15.76806-1.54981 30.22712 2.61112 41.80392 12.03421 11.49554 9.35739 19.41139 23.3533 22.92933 40.51989 8.73682.23799 16.41955 4.14143 21.19265 10.80597 4.31896 6.02999 5.75613 13.5687 4.04684 21.22722-1.69861 7.60883-6.30639 14.42963-12.97451 19.20584-7.40412 5.30303-19.51958 9.43053-30.29723 10.34277-5.89172 6.64133-12.72887 12.6207-20.32941 17.77885zM285.43372 209.3825c-4.95558 0-9.45517-.84816-13.42447-2.53519l.94542-2.22337c4.78981 2.036 10.46004 2.74973 16.85419 2.12191 11.51783-1.13212 24.69295-6.3915 37.09816-14.80971l1.35684 1.99908c-12.73351 8.64088-26.30658 14.04421-38.21911 15.2151-1.57648.15487-3.11489.23218-4.61103.23218z"></path><path fill="#fad0c9" d="m381.70837,549.21861h-133.23451c-9.00127-14.4222-17.46969-30.65124-25.51044-48.14997v-.00476c-15.63921-34.05114-29.67593-72.88591-42.90421-112.42438-3.01946-9.01086-5.99133-18.05979-8.93463-27.09445-6.04357-18.56862-1.7072-38.41633,10.37065-52.64826,3.58992-4.23209,7.86941-7.96952,12.75766-11.02712.56094-.35187,1.13163-.69422,1.71161-1.02706,8.65881-4.99284,18.10702-7.36562,27.43635-7.36562,16.94195,0,33.4704,7.83637,44.07879,22.02557,1.30274,1.74032,2.51053,3.57107,3.62312,5.4969l11.73538,20.32798,49.6659,86.02415,45.45282,78.72511c8.61609,14.92145,9.44821,32.20622,3.75152,47.14189Z"></path><path fill="#fad0c9" d="m502.14273,313.7898v83.4611l-33.74135,44.46478-9.4958,12.51065-10.26594,13.52819-17.16066,22.61044-44.659,58.85366h-129.65875c-1.49313-14.52204,2.30621-29.61943,11.8257-42.16328l63.51711-83.70373.05688-.06664,10.68455-14.08449,5.62031-7.40846,55.93769-73.70853,6.80905-8.97278c18.59203-24.49819,52.4237-30.60852,78.1958-15.1307,1.84975,1.11273,3.65655,2.3347,5.41599,3.66615,2.50101,1.89727,4.80722,3.9515,6.91841,6.14365Z"></path><ellipse cx="140.685" cy="264.017" fill="#f2f2f2" rx="111.367" ry="25.44" transform="rotate(-7.904 140.685 264.017)"></ellipse><path fill="#7c4b33" d="m66.58622,270.5708s-16.88765,2.00773-14.74045-14.74075c2.37749-18.54482,16.64244-29.48151,16.64244-29.48151-2.08588-12.9771,19.59179-58.19157,74.17775-55.15895,34.23588,1.90203,45.64784,30.90803,45.64784,30.90803,0,0,23.77492.47551,33.76038,20.92236,10.56598,21.63554-2.85299,29.95702-7.60797,31.85905-4.75498,1.90203-147.87999,15.69177-147.87999,15.69177Z"></path><path fill="#112e5b" d="m268.06648,310.20255c3.59625-8.25758-.4972-17.84735-8.94732-20.96403-15.35673-5.66406-39.19604-15.60986-44.97989-24.61158-8.70752-13.55198-14.4135-41.13146-25.34996-41.60697-11.01869-.47908-26.62791,8.55915-16.16694,49.45286,0,0-106.03614-22.82439-132.66405,29.006-26.62791,51.8304,36.13788,56.58548,81.31022,55.63446,45.17235-.95102,30.90739,26.62846,44.22135,33.76108,11.82361,6.33421,83.64772-37.20804,102.57659-80.67183Z"></path><path fill="#f90065" d="m502.14273,311.4645v107.18903c-19.1532,36.31938-37.07448,63.04292-42.54271,70.97912v.00476c-1.04619,1.5169-1.63592,2.34428-1.69303,2.42514.00975-.0238.02391-.04284.03343-.06664.0476-.09984.09519-.20444.14256-.30903.00488-.01904.01439-.03808.02391-.05706.04272-.10466.08544-.21401.12352-.32813.01904-.04278.0332-.09032.0476-.13792.0332-.08556.06176-.17588.08567-.26625.01881-.0523.0332-.1046.0476-.1569.02368-.0761.04272-.1522.05688-.23299.02391-.08562.0476-.17599.06199-.26631.02833-.1284.05224-.25679.07128-.38989.01881-.0999.0332-.19973.04272-.30433.01416-.08556.02368-.17118.02856-.25679.01416-.14268.02368-.29481.0332-.44219.00952-.17599.01439-.35663.01439-.54209,0-4.56011-2.78171-11.27434-10.08066-20.55151-3.10026-3.94192-7.01848-8.34513-11.88746-13.24759-.3139-.31391-.63245-.63722-.95587-.95578-1.05083-1.04615-2.14903-2.11605-3.28554-3.20968h-.00488c-2.69116-2.57728-5.62518-5.28295-8.8204-8.1122-8.24507-7.3038-15.90551-13.29519-22.94744-18.21199-26.27616-18.33557-43.99335-21.7069-51.47757-22.21097-.13304-.00952-.26143-.01428-.3947-.01428-.18063,0-.36127.00952-.54213.02856-.09496.00952-.18528.01904-.27559.03332-.15231.02374-.30903.05224-.46134.08556l-.22823.05706c-.17111.04754-.33759.1046-.50406.16642-.0808.02856-.15695.06182-.23775.09508-.07615.03332-.15695.06664-.23287.10936-.07128.02856-.14743.06664-.21407.10942-.05224.02374-.09984.0523-.14743.08086-.07128.03802-.14256.0808-.20919.12364-.18063.11412-.35175.23299-.51358.36609-.05688.04278-.114.09038-.17111.14268-.05712.04754-.10936.09508-.16647.14738l28.37295-36.84713,35.33919-45.89606.00464-.00952,16.78036-21.79246.00488-.00476.12352-.16171s.0332-.01904.10448-.05712c1.86415-.9985,28.32559-14.6408,56.85085-1.03658,0,.00476.00464.00476.00464.00476,3.50448,1.66904,7.03728,3.75182,10.5608,6.31952,3.30481,2.41086,6.31939,4.94524,9.03447,7.60813Z"></path><path fill="#ffcc83" d="m267.72203,80.84301s-9.98547,16.16728,13.78945,21.39787c23.77492,5.23059,50.40283,2.85305,50.40283,2.85305,0,0-9.03447,33.76108,9.50997,28.53049s13.31395-24.72643,34.71138-17.5938c0,0-20.92193-55.63446-58.0108-56.10997-37.08887-.47551-50.40283,20.92236-50.40283,20.92236Z"></path><path fill="#ffcc83" d="m271.05052,79.892s-17.78334,22.25396-27.10341,24.72643c-9.32007,2.47247,23.77492-40.4182,51.35382-40.4182s-24.25042,15.69177-24.25042,15.69177Z"></path><path d="M360.92048 469.33341c-.31622 0-.62548-.15765-.80612-.44486l-29.0054-46.1243c-.27954-.44463-.14581-1.03182.29904-1.31136.44439-.28001 1.03226-.14535 1.31134.29859l29.0054 46.1243c.27954.44463.14581 1.03182-.29904 1.31136-.15695.09891-.33248.14627-.50522.14627zM344.75214 404.18856c-.20432 0-.41002-.06524-.58323-.20037-.41467-.3225-.48943-.9199-.16717-1.33458l59.9128-77.03233c.32273-.41491.92081-.48944 1.33455-.16671.41467.3225.48943.9199.16717 1.33458l-59.9128 77.03233c-.1876.241-.46807.36708-.75132.36708zM103.65729 228.57185c-.12305 0-.24796-.02391-.36823-.07453-10.92439-4.59557-23.59243-4.9464-34.75364-.96309-.49454.17599-1.03876-.08173-1.21521-.57604-.17645-.49478.08126-1.03878.57626-1.21547 11.60467-4.14096 24.77374-3.77574 36.12998 1.00117.48432.20386.71139.76132.508 1.24542-.15324.36383-.50568.58254-.87716.58254zM75.78259 239.31606c-.44253 0-.83909-.31066-.93103-.76109-.10494-.51451.22707-1.01696.74157-1.1219 8.32401-1.69887 16.83422-2.16324 25.29057-1.3838.52286.04829.90781.5115.85952 1.03437s-.5159.90481-1.03412.85977c-8.27293-.76388-16.59601-.30787-24.7352 1.35316-.06455.01323-.12816.0195-.19131.0195zM115.05903 199.54379c-.25493 0-.50893-.10193-.69607-.30323-3.38468-3.63782-7.95438-6.05066-12.86678-6.7941-.51961-.07871-.8767-.56327-.79822-1.08266.07894-.51916.57116-.87509 1.08241-.79801 5.33589.80753 10.2989 3.42816 13.97473 7.3792.35802.38449.33619.98631-.04829 1.3441-.18296.17042-.4156.2547-.64777.2547zM120.70743 191.1019c-.18992 0-.38216-.05688-.54887-.17507-3.36703-2.38636-7.04007-4.31092-10.9165-5.72049-.49361-.17948-.74807-.7251-.56883-1.21872.1797-.49362.72671-.74786 1.21893-.56861 4.03616 1.46739 7.86012 3.47135 11.36599 5.95593.4286.30369.52983.89738.22614 1.32576-.18528.26167-.47875.40121-.77686.40121zM144.07093 198.91458c-.32087 0-.63384-.16253-.81308-.4567-5.82068-9.55823-15.87719-16.41757-26.90048-18.34886-.51775-.09078-.86323-.5837-.77268-1.10101.09055-.51707.58601-.86163 1.10052-.7727 11.55498 2.02462 22.09582 9.2146 28.19696 19.23347.27304.44858.13095 1.03367-.31762 1.30672-.15417.09427-.32505.13908-.49361.13908zM170.70766 205.03838c-.37148 0-.72439-.21918-.87716-.58324-.20339-.48433.02461-1.04157.50847-1.24496 5.71805-2.39983 12.00355-3.36524 18.17853-2.7899.52286.04853.90735.51196.85859 1.03507-.04876.52241-.50475.90504-1.03504.85861-5.86433-.54563-11.83452.37056-17.26561 2.65012-.12027.05038-.24518.0743-.36777.0743zM207.49192 229.74391c-.39795 0-.76897-.25169-.90224-.65011-2.18757-6.5524-7.20491-12.26268-13.42076-15.27524-.47271-.22916-.67006-.79801-.44114-1.2705.22939-.47249.79822-.66984 1.27047-.44115 6.76703 3.27957 12.01423 9.25128 14.3959 16.3846.16624.49803-.10309 1.03692-.60087 1.20317-.1003.03343-.20153.04922-.30137.04922zM130.18397 165.47484c-1.44368 0-2.892-.12073-4.3236-.42002-4.42436-.92501-9.30937-4.15187-10.24829-9.27613-.85952-4.68891 1.73018-9.64994 7.69759-14.7447l.87763-.74577c3.88571-3.29396 7.90377-6.70007 8.68249-11.39525.76758-4.63249-1.77337-9.63229-7.55272-14.86056-.69792-.63177-1.41396-1.25773-2.13278-1.88624-4.01713-3.51361-8.17124-7.14702-9.92417-12.28241-2.9649-8.6836 2.02365-17.55619 6.93234-25.19126.28418-.44207.87206-.56977 1.31459-.28558.4416.28396.5693.87231.28558 1.31415-4.66815 7.26079-9.4236 15.66739-6.73267 23.54811 1.58855 4.65362 5.54764 8.11638 9.3767 11.46513.72671.63571 1.45064 1.26887 2.15646 1.90737 6.2906 5.69077 9.03354 11.26987 8.15266 16.58242-.89249 5.3836-5.37397 9.18302-9.32841 12.53503l-.87252.74136c-5.41437 4.62274-7.79047 8.98149-7.06236 12.95551.78011 4.25543 4.96534 6.96243 8.767 7.75719 4.30038.89808 8.95367.01138 13.0581-.77131.52054-.09845 1.01415.24031 1.11259.75598.09844.51591-.24007 1.01394-.75597 1.11215-2.96908.56629-6.21259 1.18482-9.48025 1.18482z"></path><path d="m137.68467,140.8032c-.2735,0-.54469-.11725-.73275-.34409-.33526-.40446-.27908-1.00395.12538-1.33922,6.85015-5.678,8.21024-16.92791,2.91011-24.07446-1.38145-1.86303-3.08935-3.41795-4.89754-5.06435-1.95818-1.78269-3.98276-3.62621-5.53138-5.88325-3.99251-5.8194-4.1035-14.02285-.27025-19.94882.28511-.44045.87484-.56699,1.31505-.28187.44114.28535.56744.87393.28233,1.31508-3.42832,5.29955-3.32895,12.63533.24146,17.83968,1.42371,2.07524,3.2788,3.76436,5.24302,5.55286,1.79612,1.63502,3.65307,3.326,5.14504,5.33763,5.87175,7.91763,4.36539,20.38115-3.22401,26.67188-.17738.1472-.39238.21895-.60645.21895Z"></path><rect width="111.983" height="35.663" x="6.444" fill="#f90065" rx="11.048" ry="11.048"></rect><path fill="#fff" d="M40.90915 8.23834h5.69716v12.88051h6.86129v4.45882h-12.55845V8.23834zM55.9426 8.23834h5.69716v17.33933h-5.69716V8.23834zM63.62023 8.23834h5.84575l3.07124 12.63301h.47085l3.09631-12.63301h5.77145l-4.60732 17.33933h-9.04097l-4.60732-17.33933zM83.85538 8.23834h14.68891v4.45835h-9.09066v1.9819h9.09066v4.45882h-9.09066v1.98144h9.09066v4.45882h-14.68891V8.23834z"></path><circle cx="26.407" cy="17.838" r="4.517" fill="#fff"></circle><path d="M114.13682 493.10883c-.0664 0-.13373-.00697-.20153-.02159-.51358-.11075-.84002-.61691-.72904-1.13026l28.5299-132.19129c.11098-.51335.61295-.84119 1.13024-.72905.51358.11075.84002.61691.72904 1.13026l-28.5299 132.19129c-.09612.44579-.49036.75064-.92871.75064zM226.49328 270.18927l-.92592-2.23173c16.15209-6.70169 24.98363-13.65972 24.22952-19.08998-.61388-4.42376-7.65441-8.13588-19.8242-10.45236l.45135-2.37336c13.65293 2.59881 20.97579 6.80223 21.76612 12.4937 1.19246 8.59003-13.31581 16.51671-25.69688 21.65373z"></path></symbol><symbol id="f" viewBox="0 0 673.709 685.755"><path d="m74.44834,193.08747c30.8565-2.01549,59.45497,15.95267,87.36731,39.99362l286.63365,226.40763-157.08901,56.12793-204.43091-88.15798c-23.97605-91.2487-47.64923-182.29684-12.48104-234.37121Z"></path><path fill="#ffcc83" d="m306.854,105.35953c-1.9128-11.08545-25.63157-9.12638-20.65828-27.09245,4.97329-17.96607-9.89876-13.47455-6.45571-24.94226,3.44305-11.4677-5.44666-8.98304-4.29898-18.53946,1.14768-9.55642.38256-14.52576-12.62451-19.87735-13.00707-5.3516-6.12097-14.90802-18.74548-14.90802-10.90074,0-12.38886,11.68328-12.5921,14.87416-4.92687-1.90886-14.50369-4.1394-18.77789.41611-5.73841,6.11611-3.82561,12.23222-10.7117,14.90802-6.88609,2.6758-14.91987-2.6758-18.36292,16.43704-3.44305,19.11284-13.5387,15.15536-18.79813,26.04125-6.02533,12.47113,2.2999,21.28598-3.01267,30.53276-13.34181,23.2221-3.58651,20.78521-18.50638,35.69323-14.91987,14.90802-10.32914,30.9628-10.32914,30.9628l115.68594-53.61894c15.75504,5.82949,39.77791,6.73163,47.05068,5.69349,10.7117-1.52903,13.05005-5.49494,11.13725-16.58039Z"></path><path fill="#f90065" d="m391.02541,287.94735l-.6559-.04487c-18.9099-1.29375-33.18996-17.67309-31.89416-36.58285l7.09715-103.56973c1.2956-18.90686,17.67188-33.18426,36.57889-31.89071l.6559.04487c18.9099,1.29375,33.18996,17.67309,31.89416,36.58285l-7.09715,103.56973c-1.2956,18.90686-17.67188,33.18426-36.57889,31.89071Z"></path><path fill="#f90065" d="m119.63832,163.41479l77.03817-49.45447,92.96226,4.73043,34.68367,3.41644,77.64574,200.42201-266.83613,70.95642s-19.36714-212.43922-15.49371-230.07082Z"></path><path fill="#ff9996" d="m382.60103,120.4109s50.35456-92.02833,63.69637-92.02833,7.74686,14.19128.43038,30.10272c-7.31647,15.91144-39.5157,73.38058-39.5157,73.38058,0,0-12.56039,11.76712-19.0161,6.17662s-5.59495-17.6316-5.59495-17.6316Z"></path><path fill="#ff9996" d="m435.53787,73.10662s23.24057-3.87035,16.35447,13.33121c0,0,15.49371,5.16047,9.038,15.4814,0,0,19.36714,1.72016,3.01267,20.21183,0,0-12.48104,44.72405-49.92418,47.30428-37.44313,2.58023-40.02542-36.98335-31.4178-49.02444,8.60762-12.04109,52.93684-47.30428,52.93684-47.30428Z"></path><path fill="#ff9996" d="m379.74054,133.42217s-4.46699-18.91392,4.54338-30.0144c5.78045-7.12132,13.94216-20.50234,19.05079-29.18057,2.72159-4.62328,9.48655-4.49203,11.97637.25987,2.47405,4.72182,3.78754,11.23353.04829,19.07551-8.0371,16.85548,3.30962,33.40454-4.38644,41.62306s-25.96805,15.38398-31.23239-1.76347Z"></path><path d="M435.87756 106.11597c-1.58241 0-3.2081-.37628-4.86532-1.12906-.26941-.12221-.38835-.4397-.26605-.70889.12273-.26877.43879-.38825.70988-.26583 2.91348 1.3235 5.70633 1.36991 8.30038.1388 7.81452-3.70888 11.58078-17.70845 11.61776-17.84934.07565-.28578.37154-.45608.6544-.38153.28622.07517.45728.36809.38205.65409-.03909.14846-.9797 3.68095-2.93996 7.74742-2.65584 5.51008-5.76979 9.14274-9.25445 10.79654-1.40168.66522-2.85127.99782-4.33869.99782zM446.9397 114.70415c-1.98084 0-3.89024-.68096-5.69792-2.03555-.23663-.17743-.28454-.51298-.10717-.74963.1782-.23644.51402-.28452.75022-.10709 2.12711 1.59396 4.39753 2.14453 6.75286 1.63574 6.97351-1.50661 12.62731-11.68307 12.68363-11.78554.14248-.25954.46737-.35403.72753-.21229.25932.14216.35431.46742.21225.72674-.05968.10877-1.487 2.69614-3.84022 5.51911-3.19339 3.83045-6.40822 6.11777-9.55496 6.7981-.64851.14048-1.29114.2104-1.92621.2104zM455.33969 124.33782c-3.70573 0-6.23674-1.26093-7.37574-3.70048-.12525-.26793-.00925-.58647.2589-.71162.26815-.12536.58673-.00924.71198.25891 2.77016 5.93088 14.69767 1.49128 14.8183 1.44592.27739-.10457.58631.03444.69096.31077.10507.27633-.03404.58563-.31102.69041-.12987.04935-3.22491 1.21137-6.7495 1.5906-.71618.07706-1.3979.11549-2.04389.11549zM428.72206 93.07243c-.09036 0-.18157-.02268-.26521-.07055-.25722-.14657-.34632-.4735-.19964-.73031 7.72038-13.51179 15.13562-28.41281 15.20959-28.56168.13155-.26457.45308-.37271.71828-.24148.26521.13145.37322.45293.24167.71771-.07397.14909-7.50266 15.07698-15.23901 28.61628-.09877.17302-.2795.27003-.46569.27003zM410.97306 135.72104c-.13113 0-.26268-.04788-.36608-.14447-.21603-.202-.22738-.54091-.02522-.75677 3.53551-3.77544 2.83362-9.59923 2.02077-16.34253-.91876-7.62437-1.96067-16.26631 2.27295-25.1451 3.06814-6.43463 3.05512-12.6914-.03909-18.59666-.81075-1.54776-2.17334-2.65667-3.83602-3.1224-.28496-.07979-.4514-.37523-.37154-.65997s.37616-.45146.6607-.37103c1.95016.54616 3.54686 1.84467 4.4963 3.6568 3.25896 6.21961 3.27829 12.7987.05716 19.55396-4.09997 8.59847-3.07781 17.07641-2.17628 24.55631.84479 7.00913 1.57442 13.06243-2.30237 17.20219-.10549.11276-.24839.16966-.39129.16966z"></path><ellipse cx="239.01" cy="271.073" rx="10.489" ry="47.493" transform="rotate(-13.323 239.01 271.074)"></ellipse><path fill="#ff9996" d="m253.91715,165.56498c-53.36723,10.32093-76.62931-27.4322-83.49389-33.113-1.98836-1.64706,25.36662-17.02095,26.58033-19.29584,4.46736-8.37718,11.22437-29.806,7.41976-40.04953l8.3193,2.3738,39.88336,11.38745c.74886,4.24448,1.95395,11.97227,4.08431,17.87242,1.53649,4.26598,3.55926,7.58159,6.24483,7.92992,3.87774.50314,24.22616,2.45123,25.82285,6.02054,4.01979,8.99641-8.39673,41.75677-34.86085,46.87424Z"></path><path d="m256.71032,104.74028c-1.32561,1.50944-3.59798,2.49853-7.07113,2.78234-24.20461,1.9825-35.13204-26.85594-36.89654-32.0422l39.88336,11.38745c.74886,4.24448,1.95395,11.97227,4.08431,17.87242Z"></path><path fill="#ff9996" d="m199.85648,56.18764c2.24993-3.13877,5.89397-4.75388,9.74526-4.73585,3.17515-16.355,14.89767-25.53993,29.24061-24.13162,15.52657,1.52454,28.23574,14.8785,26.37093,33.84042-1.8648,18.96187-5.2906,34.14557-20.81723,32.62103-8.69459-.85371-19.33772-6.76741-26.69522-15.13452-5.00331-.37893-10.55098-2.29088-13.86917-4.66564-6.10686-4.37061-7.88666-12.33717-3.97518-17.79382Z"></path><path d="m202.57332,66.63071l-.95323-.56863c2.00816-3.36241,5.05235-6.16291,8.57147-7.8858l.48838.99614c-3.32789,1.62944-6.2069,4.27834-8.10663,7.45828Z"></path><path fill="#fff" d="m204.97366,62.61237c.53913,1.67124,1.07827,3.34248,1.6174,5.01372"></path><polygon points="206.063 67.796 204.445 62.783 205.502 62.442 207.119 67.456 206.063 67.796"></polygon><ellipse cx="237.817" cy="57.007" rx="2.46" ry="1.766" transform="rotate(-84.374 237.817 57.007)"></ellipse><ellipse cx="256.129" cy="58.212" rx="2.46" ry="1.766" transform="rotate(-84.374 256.129 58.212)"></ellipse><path d="M254.42622 70.76122c-3.10387-1.54671-5.51299-4.3195-6.60996-7.60715-1.09697-3.28745-.8347-6.94992.71912-10.04859l.99273.49723c-1.42269 2.83704-1.66268 6.19042-.6586 9.20027 1.0045 3.01048 3.21062 5.54914 6.05265 6.96545l-.49595.99279zM246.33935 78.38371c-4.96493-.66501-9.30236-4.32202-10.79314-9.10011l1.05998-.33009c1.34368 4.30564 5.40666 7.73125 9.88027 8.33032l-.1471 1.09987z"></path><path d="m246.46124,94.44045c-.68802,0-1.39453-.03549-2.11954-.10688-8.97285-.88087-19.51214-6.82015-26.90847-15.15152-4.95316-.4187-10.52164-2.31419-13.92475-4.74954-3.06478-2.19345-5.18264-5.32572-5.96313-8.81979-.78595-3.51695-.12525-6.9791,1.8598-9.74811,2.19351-3.06025,5.72482-4.85285,9.74031-4.96225,3.30687-16.12835,14.94144-25.58963,29.75092-24.13425l-.10844,1.10407c-14.33202-1.40582-25.57446,7.88979-28.64092,23.68532l-.08784.45125-.4598-.0021c-.02059-.00021-.04203-.00021-.06262-.00021-3.81459,0-7.17526,1.63931-9.22881,4.50407-1.79844,2.50905-2.39483,5.65581-1.67907,8.86052.72122,3.22739,2.68358,6.12511,5.52602,8.1594,3.30393,2.36437,8.76439,4.19834,13.5881,4.56349l.2257.01701.1492.16987c7.11683,8.09368,17.69899,14.10099,26.33225,14.94868,2.93827.28851,5.54452-.03927,7.74601-.97431l.43458,1.02092c-1.82408.77462-3.89234,1.16434-6.16949,1.16434Z"></path><path fill="#ff9996" d="m235.18206,226.41879l-105.53603,68.82592c-55.12538,35.34259-28.58532,116.59939,35.89222,75.10521l101.29033-81.36377c44.75961-31.82288-3.14208-84.8593-31.64652-62.56736Z"></path><path d="m434.08833,202.90723l-127.9515,50.63743c-6.71794,2.65866-13.56798-1.11571-15.3-8.43028l-21.35566-90.18815c-1.73202-7.31457,2.30987-15.39947,9.02781-18.05812l127.9515-50.63743c6.71794-2.65866,13.56798,1.11571,15.3,8.43028l21.35566,90.18815c1.73202,7.31457-2.30987,15.39947-9.02781,18.05812Z"></path><path fill="#f2f2f2" d="m435.98905,202.58587l-128.21541,50.74188c-6.22974,2.46545-12.58199-1.03463-14.18814-7.81765l-21.52064-90.88489c-1.60615-6.78302,2.14201-14.28039,8.37175-16.74584l128.21541-50.74188c6.22974-2.46545,12.58199,1.03463,14.18814,7.81765l21.52064,90.88489c1.60615,6.78302-2.14201,14.28039-8.37175,16.74584Z"></path><path fill="#b8c2d8" d="m394.08246,116.13355l-1.6734-7.06704c-.44805-1.8922.59754-3.98368,2.3354-4.67145l13.25856-5.24714c1.73786-.68777,3.50989.28862,3.95795,2.18082l1.6734,7.06704c.44805,1.8922-.59754,3.98368-2.3354,4.67145l-13.25856,5.24714c-1.73786.68777-3.50989-.28862-3.95795-2.18082Z"></path><ellipse cx="406.782" cy="107.243" rx="4.202" ry="3.616" transform="rotate(-70.075 406.782 107.243)"></ellipse><ellipse cx="398.134" cy="110.666" fill="#fff" rx="2.875" ry="2.474" transform="rotate(-70.075 398.134 110.666)"></ellipse><ellipse cx="401.894" cy="109.178" rx=".663" ry=".571" transform="rotate(-70.075 401.894 109.178)"></ellipse><polygon fill="#21201f" points="443.456 186.768 424.359 106.118 425.303 105.895 444.399 186.545 443.456 186.768"></polygon><path fill="#ff9996" d="M219.22996 236.82204l33.39605-30.40336 38.73428-3.01027 22.70203 60.0933s-44.21679 25.33737-61.86455 37.23697c0 0-26.68575-.14148-38.30603-20.78335-11.62028-20.64187 5.33823-43.13329 5.33823-43.13329zM664.50048 649.7888c-28.40514 24.51222-208.73471 10.75097-208.73471 10.75097l14.60279-35.02234 24.13148-57.86606s8.60762-21.50195 42.17732-21.50195 38.73428 8.60078 38.73428 8.60078c0 0-1.58808 43.58443 37.87352 51.26492 1.64839.32253 3.36992.58059 5.16457.76979 30.89275 3.26398 74.45589 18.49167 46.05075 43.00389z"></path><path fill="#ff9996" d="m290.14076,203.50318l25.75124-18.58645s23.24057-20.21183,27.54437-17.6316,7.31647,12.47113-2.1519,23.65214c-9.46838,11.18101-18.93676,18.49167-18.93676,18.49167l-24.96209,17.20156s-7.74686.43004-11.1899-8.60078c-3.44305-9.03082,3.94504-14.52655,3.94504-14.52655Z"></path><path fill="#ff9996" d="m303.84133,244.2621s20.2279-14.19128,22.3798-17.6316c2.1519-3.44031,19.79752-24.94226,15.06333-35.69323s-21.08866,7.7407-31.4178,21.07191c-10.32914,13.33121-20.3469,11.29297-20.3469,11.29297,0,0-7.76711,10.06575-1.17214,18.37971,6.59497,8.31396,15.49371,2.58023,15.49371,2.58023Z"></path><path fill="#ff9996" d="m305.13247,256.30319s28.40514-20.21183,30.55704-26.66241c2.1519-6.45058,11.00421-25.62203,4.30381-30.10272-6.7004-4.48069-18.93676,21.50195-18.93676,21.50195l-27.84158,20.36077s-4.60101,6.47455,0,12.19362c4.60101,5.71907,11.91749,2.7088,11.91749,2.7088Z"></path><path fill="#ff9996" d="m309.43628,266.19409s18.076-10.32093,21.51904-14.19128c2.23318-2.51033,7.31647-21.50195,2.58229-24.08218s-12.38676.65343-15.66176,7.63738c-3.275,6.98395-20.49023,13.86457-20.49023,13.86457,0,0-4.73419,7.55631,0,12.80897,4.73419,5.25266,12.05066,3.96255,12.05066,3.96255Z"></path><path fill="#7c4b33" d="m664.50048,649.7888c-28.40514,24.51222-208.73471,10.75097-208.73471,10.75097l14.60279-35.02234c19.50058,14.56106,96.59471,16.62527,125.70137,10.08009,22.32811-5.01857,20.9466-19.80762,17.21523-29.58239,1.64839.32253,3.36992.58059,5.16457.76979,30.89275,3.26398,74.45589,18.49167,46.05075,43.00389Z"></path><path fill="#ff9996" d="m243.20971,216.95167s1.66944-8.81284,11.13782-23.8642c5.59149-8.88849-.43038-31.39284,3.87343-33.113,4.30381-1.72016,13.90259-4.13937,17.21523,16.77152,3.31264,20.91089,7.60936,34.29775,7.60936,34.29775,0,0-9.33088,19.02707-23.53345,15.58676-14.20257-3.44031-16.30239-9.67884-16.30239-9.67884Z"></path><path d="M303.84185 222.86586c-.20258 0-.39634-.11549-.48712-.31119-.12399-.26856-.00672-.58668.26226-.71057 21.99566-10.14392 40.56508-35.99602 40.75001-36.25598.1719-.24106.50645-.29733.74728-.12599.24125.17134.29757.50563.12609.74669-.18661.26226-18.92247 26.34555-41.1745 36.60748-.07271.0336-.14878.04956-.22402.04956zM314.18192 238.80166l-.58379-.89829c.04119-.02688 4.21134-2.78097 12.22593-11.63205 8.01752-8.85443 14.11809-24.53511 14.17861-24.69238l1.0003.3851c-.06136.15916-6.23464 16.02525-14.38456 25.02583-8.13058 8.97937-12.26459 11.70029-12.43649 11.81179zM318.69209 250.34195l-.43542-.97851c7.49384-3.32797 15.34451-17.22927 15.42268-17.36933l.93557.52285c-.02017.0357-2.03254 3.61501-4.96871 7.56621-3.97052 5.34252-7.65607 8.79417-10.95412 10.25878z"></path><path fill="#32ce95" d="m549.37198,353.08797c2.66693,22.81767-9.91668,44.69777-30.99161,53.87927-98.7512,43.02195-157.8595,68.43827-258.6431,77.63748-57.89621,6.49972-118.2487-23.85654-123.9433-84.61181l-2.38346-25.42901c93.65124-48.42446,201.44068-68.58512,363.36837-84.00828,22.3328-2.12714,43.00349,11.98632,49.20325,33.52954l3.38985,29.00282Z"></path><path fill="#ff9996" d="m420.21521,664.21755l-.04083-.00914c-31.28131-6.99921-50.96161-38.03667-43.95179-69.31561l54.85068-244.75256c7.00646-31.26395,38.0258-50.93275,69.29211-43.93689l.04083.00914c31.28131,6.99921,50.96161,38.03667,43.95179,69.31561l-54.85068,244.75256c-7.00646,31.26395-38.02579,50.93275-69.29211,43.93689Z"></path><path fill="#b8c2d8" d="m328.76487,538.40872l10.59597,35.02665,31.02404,102.54368c.92032,3.04194,3.7515,5.10235,6.93139,5.04438l5.62082-.10246c4.68154-.08534,8.00215-4.59283,6.6926-9.08472l-30.27335-103.84084-10.30332-35.33632-20.28816,5.74962Z"></path><polygon points="341.676 580.983 361.043 573.672 349.053 532.659 328.765 538.409 341.676 580.983"></polygon><path fill="#ff9996" d="m591.73596,683.76187h-211.00708c-14.4092,0-25.02666-13.45593-21.66967-27.45372l4.17467-17.40797,18.076-66.08835c5.85748-25.77226,24.53171-44.29401,52.07608-43.00389,27.54437,1.29012,66.39486,12.00665,62.40522,49.02444-2.53064,23.49303,11.04784,30.58006,42.01378,39.90763,5.87902,1.7674,12.38637,3.61659,19.53069,5.67649,27.51422,7.92989,42.01808,19.64415,49.58416,30.57145,8.42258,12.16151-.38299,28.77392-15.18385,28.77392Z"></path><path fill="#ff9996" d="m530.55497,615.04317l-2.92887.43591c-28.98851,4.31442-55.98722-15.68404-60.30835-44.67155l-32.46444-217.7815c-4.32255-28.99701,15.68389-56.00649,44.6819-60.32233l2.92887-.43591c28.98851-4.31442,55.98722,15.68404,60.30836,44.67155l32.46444,217.7815c4.32255,28.99701-15.68389,56.00649-44.6819,60.32233Z"></path><path d="m537.96903,619.34494c-.029,0-.05884-.00252-.08868-.00756-19.76978-3.41217-32.79553-9.80186-38.71578-18.99227-4.48033-6.9558-3.01351-12.83397-2.94878-13.08091l21.45432-95.02558c.06346-.27969.33834-.45692.62119-.39224.27992.06299.4556.34101.39255.6207l-21.45852,95.0428c-.01849.07265-1.41219,5.74001,2.83446,12.3065,7.18408,11.10836,24.62838,16.19071,37.99708,18.49797.28286.04872.47241.31749.42366.5997-.04371.25282-.2631.43088-.5115.43088Z"></path><path fill="#32ce95" d="m536.29628,488.51349c-43.61142,31.02346-95.24471,43.01997-151.28483,44.56409-7.66522.21121-13.56095-6.71719-12.10771-14.24037l42.40623-219.53012,73.56031-8.70116c33.63762-3.97886,62.67231,23.44625,60.58627,57.22759l-8.12924,131.64502c-.22332,3.6164-2.07702,6.93357-5.03103,9.03495Z"></path><path fill="#32ce95" d="m513.51403,295.43673s25.74562-1.72016,40.80895,76.97697c7.09642,37.07468,11.80487,58.49668,14.80034,70.78576,2.45485,10.07115-2.27028,20.49141-11.43672,25.34472-34.21538,18.11585-73.94388,29.02502-117.76316,34.58691-6.30688.80052-12.10369-3.56409-13.04909-9.84597-4.67489-31.06313-15.7897-117.95687,1.77743-143.23343,21.51904-30.9628,25.54692-57.62521,84.86225-54.61494Z"></path><polygon points="318.001 250.104 303.368 222.581 304.315 222.079 318.948 249.602 318.001 250.104"></polygon><path fill="#f90065" d="m129.88887,381.5757l-.05777-.00395c-19.31227-1.32128-33.89619-18.04915-32.57282-37.36128l10.74713-156.83395c1.32317-19.30917,18.04791-33.89036,37.35723-32.56929l.05777.00395c19.31227,1.32128,33.89619,18.04915,32.57282,37.36128l-10.74713,156.83395c-1.32317,19.30917-18.04792,33.89036-37.35723,32.56928Z"></path><path fill="#f90065" d="m248.85587,317.29559c-17.2497,13.32693-89.07591,67.21941-118.8884,64.57896-34.00009-3.01027-40.88618-46.01416-19.36714-73.96669,19.96968-25.93995,104.0618-75.21382,116.06508-82.17184-4.12729,4.50252-3.34832,24.58101,2.13903,47.75151,5.66813,23.92737,14.34027,42.65987,20.05143,43.80806Z"></path><path d="m145.03131,278.34067c-.16686,0-.33119-.07748-.43584-.22321-.17232-.24022-.11726-.57493.12315-.74732,23.53897-16.87861,50.3016-33.90882,81.81691-52.06348.2568-.1472.58379-.05963.73215.19633.14752.25618.05968.58374-.1967.73136-31.48421,18.13681-58.21784,35.14812-81.72781,52.00594-.09457.06782-.20384.10037-.31186.10037Z"></path><path d="m138.47179,274.40145c-.15719,0-.3127-.06866-.41861-.20053-.18493-.23077-.14794-.56758.0828-.75257,9.89161-7.92443,21.74222-13.13739,34.27034-15.07572.29042-.04578.56572.15455.61153.44726.04539.29229-.15509.56569-.44761.61104-12.34319,1.90956-24.01811,7.04567-33.76346,14.85272-.09919.07937-.21729.1178-.33497.1178Z"></path><path d="m172.57569,259.41896c-.01471,0-.02984-.00063-.04497-.00189-.29505-.02457-.51402-.28326-.48964-.57807l4.30381-51.60467c.0248-.29439.28412-.51487.57874-.48904.29505.02457.51402.28326.48964.57807l-4.30381,51.60467c-.02354.27948-.25764.49093-.53377.49093Z"></path><circle cx="137.93" cy="173.521" r="3.228" fill="#ffcc83"></circle><circle cx="158.588" cy="209.214" r="3.228" fill="#ffcc83"></circle><circle cx="186.132" cy="173.521" r="3.228" fill="#ffcc83"></circle><circle cx="227.018" cy="185.992" r="3.228" fill="#ffcc83"></circle><circle cx="206.79" cy="212.654" r="3.228" fill="#ffcc83"></circle><circle cx="285.12" cy="301.672" r="3.228" fill="#ffcc83"></circle><circle cx="318.259" cy="274.15" r="3.228" fill="#ffcc83"></circle><circle cx="350.968" cy="290.921" r="3.228" fill="#ffcc83"></circle><circle cx="356.133" cy="246.627" r="3.228" fill="#ffcc83"></circle><circle cx="403.044" cy="268.129" r="3.228" fill="#ffcc83"></circle><circle cx="379.804" cy="243.187" r="3.228" fill="#ffcc83"></circle><circle cx="411.221" cy="224.695" r="3.228" fill="#ffcc83"></circle><circle cx="112.967" cy="236.306" r="3.228" fill="#ffcc83"></circle><circle cx="114.689" cy="290.921" r="3.228" fill="#ffcc83"></circle><circle cx="141.803" cy="321.454" r="3.228" fill="#ffcc83"></circle><circle cx="118.993" cy="359.298" r="3.228" fill="#ffcc83"></circle><circle cx="169.347" cy="357.577" r="3.228" fill="#ffcc83"></circle><circle cx="173.651" cy="280.6" r="3.228" fill="#ffcc83"></circle><circle cx="196.031" cy="318.444" r="3.228" fill="#ffcc83"></circle><circle cx="213.246" cy="255.228" r="3.228" fill="#ffcc83"></circle><circle cx="233.044" cy="311.993" r="3.228" fill="#ffcc83"></circle><circle cx="146.537" cy="256.948" r="3.228" fill="#ffcc83"></circle><path d="M159.4911 374.95685c-.20931 0-.40811-.12305-.49427-.32799-.11474-.27255.01345-.58626.28622-.70091 34.64776-14.56631 78.95261-49.24408 79.39602-49.59264.232-.1831.56908-.14237.75233.08987.18283.23224.1429.56905-.08994.75173-.44425.34941-44.86048 35.11536-79.64315 49.73795-.06767.02856-.13828.042-.2072.042zM392.49988 298.12267c-.21477 0-.41735-.12998-.49973-.34185l-25.39247-65.36591c-.10675-.2757.02984-.58605.30597-.69293.27445-.10709.58631.02961.69348.30531l25.39247 65.36591c.10675.2757-.02984.58605-.30597.69293-.06346.02478-.12903.03654-.19376.03654z"></path><path fill="#7c4b33" d="m591.73596,683.76187h-211.00708c-14.4092,0-25.02666-13.45593-21.66967-27.45372l4.17467-17.40797c20.11169,27.00646,150.59027,22.44376,172.58272,10.45858,13.87547-7.56442,8.67218-20.88702,1.98836-30.61875,5.87902,1.7674,12.38637,3.61659,19.53069,5.67649,27.51422,7.92989,42.01808,19.64415,49.58416,30.57145,8.42258,12.16151-.38299,28.77392-15.18385,28.77392Z"></path><path d="m380.01926,483.46902c-.0332,0-.06725-.00294-.10129-.00966-.29042-.05543-.48124-.33597-.42534-.62658l19.36714-101.05914c.05548-.28977.33371-.48253.62708-.425.29042.05543.48124.33597.42534.62658l-19.36714,101.05914c-.04917.25618-.27361.43466-.52579.43466Z"></path><path d="M387.04447 445.571c-.24167 0-.46064-.1642-.52032-.40904-3.89108-16.00005-5.8715-32.46164-5.88621-48.92743-.00042-.29565.23957-.53545.53545-.53587h.00042c.29589 0 .53545.23938.53587.53503.01471 16.38095 1.98505 32.75771 5.85595 48.67545.06977.28725-.10675.57702-.39424.64674-.04245.01008-.0849.01512-.12693.01512zM541.41208 480.02871c-.01093 0-.02186-.00042-.0332-.00084-.29547-.01806-.52032-.27213-.50225-.56737l7.74686-126.43144c.01849-.29481.26983-.51235.56782-.50185.29547.01806.52032.27213.50225.56737l-7.74686 126.43144c-.01765.28389-.25344.50269-.53461.50269z"></path><path fill="#b8c2d8" d="m168.27136,543.13915l-10.59597,35.02665-31.02404,102.54368c-.92032,3.04194-3.7515,5.10235-6.93139,5.04438l-5.62082-.10246c-4.68154-.08534-8.00215-4.59283-6.6926-9.08472l30.27335-103.84084,10.30332-35.33632,20.28816,5.74962Z"></path><polygon points="168.271 543.139 147.983 537.39 135.993 578.402 155.36 585.713 168.271 543.139"></polygon><path fill="#ffede1" d="m384.30101,533.08053c-30.96588,14.06661-63.4381,25.3723-97.42957,33.89564C134.35305,605.21525-11.20176,482.47353,1.3008,325.85338c2.09167-26.20227,12.03346-116.42443,72.71716-132.76591-18.076,24.08218-9.038,122.13105,15.06333,162.98475,21.94942,37.41339,51.59837,44.681,83.78223,34.47188,27.65625-8.77706,55.65255-16.42747,84.13087-22.49961,46.34774-9.87368,91.49034,21.93629,97.09822,68.95673,1.17493,9.88229,1.71291,20.31934,1.60962,31.30685l27.50135-5.00996-10.72942,55.53954c-1.43746,7.43109,4.2995,14.28158,11.82686,14.24289Z"></path><path d="m230.32363,574.59696c-18.24706,0-36.4214-2.21361-54.40619-6.64251-34.35986-8.46177-66.94061-25.12578-94.22062-48.19124-27.23084-23.02388-49.02769-52.30138-63.03356-84.66643C3.74871,400.6332-2.27284,363.86403.76462,325.81063c2.08466-26.11961,7.0706-50.40295,14.41818-70.22464,12.9005-34.80123,32.64842-56.00333,58.69529-63.0175l1.50633-.40568-.93599,1.24728c-8.28777,11.04138-11.4219,39.71498-8.17934,74.83118,3.24761,35.17668,12.16666,68.72685,23.27587,87.55785,10.40732,17.73953,23.11658,29.469,37.77559,34.86297,13.33088,4.90555,28.59805,4.69347,45.38038-.63036,29.48739-9.35839,57.02336-16.72238,84.18107-22.51321,22.39914-4.77116,45.92214.12599,64.53906,13.4362,9.03379,6.45856,16.50452,14.50709,22.20496,23.92133,5.93035,9.79472,9.63145,20.58181,11.00077,32.06184,1.15034,9.67378,1.69462,20.00773,1.61897,30.72468l27.63474-5.03448-.14878.77189-10.72926,55.53969c-.6523,3.37144.232,6.82099,2.42636,9.4638,2.18595,2.63315,5.39405,4.13954,8.8102,4.13954h.05926l2.51462-.01302-2.28892,1.03982c-30.89075,14.03254-63.70183,25.44747-97.52119,33.92772-18.87581,4.73253-37.81636,7.09942-56.67914,7.09942ZM72.71892,194.01063c-24.98184,7.30562-43.99383,28.13857-56.52699,61.9487-7.31395,19.73055-12.27762,43.91436-14.35471,69.93697-3.02359,37.87618,2.9698,74.47316,17.81331,108.77381,13.94073,32.21386,35.63629,61.35488,62.74146,84.27251,27.15392,22.95879,59.58337,39.54594,93.7831,47.96782,36.40333,8.96488,73.60311,8.81118,110.56543-.45524,33.06451-8.29127,65.16277-19.39249,95.43906-33.00591-2.94668-.48757-5.6332-2.01581-7.57916-4.35918-2.4003-2.89184-3.36781-6.6656-2.65458-10.35453l10.58048-54.76781-27.36827,4.98576.0063-.65052c.10255-10.90384-.43753-21.41417-1.60594-31.2383-1.35082-11.32632-5.00234-21.96894-10.85325-31.63222-5.62395-9.28867-12.9959-17.23011-21.91034-23.60342-18.37188-13.13509-41.58471-17.96756-63.68838-13.25897-27.12282,5.78327-54.62601,13.13844-84.0802,22.48633-8.84971,2.80743-17.24844,4.20884-25.18022,4.20884-24.17866.00084-44.03292-13.01918-59.22864-38.92146-11.18402-18.95741-20.15813-52.67914-23.42003-88.00385-1.5429-16.71209-1.67277-32.41964-.37616-45.42475,1.29535-12.98684,4.01633-22.92603,7.89774-28.90458Z"></path><ellipse cx="212.319" cy="76.834" fill="#fff" rx="6.504" ry="6.498"></ellipse><path d="m251.61888,31.64655c-3.8045-2.3781-8.16862-3.87465-12.77798-4.32619-.85215-.08171-1.69998-.12901-2.5349-.13762.62403-5.28517,2.81896-16.96074,9.8643-14.28158,6.96784,2.65333,6.17595,13.78705,5.44858,18.74538Z"></path><path fill="#ffcc83" d="m259.37347,17.20156c-8.03378-4.58708-11.47682-8.02739-17.98036-5.73385-4.12901,1.45614-4.71028,7.06972-4.58503,10.97679-9.37129-3.76025-22.65865.17515-28.27597,8.60841-2.99819,3.69737-13.09612,17.32038-8.07258,21.31938,2.12006,1.68768,5.98699,1.60182,8.43534,2.87738,4.1412,2.15754,5.8531,6.03338,7.98568,9.83751.96602-1.95482,3.46934-14.03718.38219-15.23451,9.67087,2.31209,7.86687-6.13575,9.21051-12.00924,1.5217-6.65193,10.90513-11.67715,17.59779-9.55642-1.52585-2.3269-3.57133-4.05292-5.92493-5.23891,1.30945-4.05219,3.82178-10.20731,6.69005-8.9046,4.20817,1.91128-4.26082,20.25961,5.20756,28.86039,9.11562,8.28035,12.48104-.86008,19.27633,15.4814,1.76756,4.25066-1.9128-36.69665-9.94658-41.28374Z"></path><path d="M268.90324 51.22784l-1.10789-.07139c.53629-8.31542-.67541-16.85362-3.50441-24.69154l1.04485-.37628c2.87985 7.98008 4.11384 16.67304 3.56745 25.13922zM232.71763 168.2295c-17.84778 0-32.82957-8.22386-42.77204-15.71343-12.43775-9.37014-19.88368-19.64908-19.95765-19.75197-.17232-.24022-.11726-.57472.12315-.74711.24083-.1726.57538-.11717.7477.12284.07313.10163 7.44088 10.26781 19.75675 19.53968 11.33322 8.5319 29.30078 18.03455 50.54958 14.84852.28874-.04305.56572.15748.60943.4502.04371.29229-.15761.56506-.45055.60894-2.93281.4397-5.80636.64233-8.60636.64233z"></path></symbol><symbol id="e" viewBox="0 0 509.663 851.685"><path fill="#b8c2d8" d="m171.11174,330.90452h234.67278s17.98259,5.84137,19.33128,97.05666c.38146,25.79903,9.20812,87.54661,12.13825,120.87149,7.42965,84.49885,19.78085,174.34252,19.78085,174.34252h-104.74858l-49.45212-172.54517-19.33128-150.07835,11.68868,150.97703,18.88172,183.77858h-102.05119l-27.87301-182.43057-13.03738-221.97217Z"></path><path d="m337.45069,96.80027c0,11.04319-11.12979,24.7135-34.84127,24.7135s-36.18996-13.67031-36.18996-24.7135,13.60239-10.78407,37.31387-10.78407,33.71735-.25912,33.71735,10.78407Z"></path><path fill="#ffbc97" d="m408.5403,138.15282c-4.46004,39.22253-9.08437,79.83393-13.54534,119.06054,3.45443,20.70945,7.33185,52.97886,10.78956,73.69116h-234.67278c13.74088-67.10029,27.6449-135.02873,41.38695-202.12941,1.33859-6.56152,6.61751-11.58345,13.16316-12.64438,0,0,60.53845-9.8944,60.53845-9.8944l53.04864,5.39204,55.82242,8.82942c.77774.12133,1.53748.30102,2.26582.5303,7.34067,2.21745,12.11227,9.63572,11.20312,17.16474Z"></path><polygon fill="#f2f2f2" points="407.412 148.07 405.982 160.637 206.466 158.233 209.037 145.679 407.412 148.07"></polygon><path fill="#8e8e8d" d="m408.42352,133.70421l-196.45078-2.36801.52596-2.56109c.84074-4.1116,3.22334-7.62533,6.51869-9.93937l178.3198,2.15234c5.84873,1.80634,10.11082,6.78941,11.08634,12.71613Z"></path><polygon fill="#f2f2f2" points="401.284 201.923 399.855 214.486 195.451 212.024 198.023 199.469 401.284 201.923"></polygon><polygon fill="#f2f2f2" points="404.35 174.994 402.921 187.562 200.963 185.126 203.53 172.572 404.35 174.994"></polygon><polygon fill="#f2f2f2" points="396.856 268.375 184.441 265.814 187.008 253.259 395.157 255.771 394.995 257.213 396.856 268.375"></polygon><polygon fill="#f2f2f2" points="398.223 228.847 396.793 241.41 189.948 238.917 192.515 226.366 398.223 228.847"></polygon><polygon fill="#f2f2f2" points="405.785 321.918 173.427 319.604 175.994 307.054 403.761 309.799 405.785 321.918"></polygon><polygon fill="#f2f2f2" points="401.361 295.389 178.934 292.707 181.501 280.156 399.257 282.781 401.361 295.389"></polygon><path fill="#112e5b" d="M281.2551 133.64585s-31.63676 118.97286-25.92287 204.55606c.66135 9.90576-6.00302 18.78172-15.70743 20.89853-27.48171 5.99455-50.74724 6.23757-68.91412-.47498-5.02773-1.85771-7.90342-7.1529-6.79461-12.39459l44.447-210.11551c2.21338-10.46335 10.53436-18.55199 21.06052-20.47246l39.2437-7.15989 12.58781 25.16284zM306.88028 133.64585l-14.90141 209.36482c-.48325 6.78971 4.22731 13.47556 11.02366 13.9114 49.73335 3.18932 12.86905-14.78434 78.95506-41.74432 7.01862-2.86327 31.8197 27.11483 31.02985 19.57918l-8.55162-81.5876 6.84345-117.88897c.4517-7.78119-5.13981-14.60935-12.86062-15.70496l-59.16971-8.39637-32.36866 22.46682z"></path><path fill="#141414" d="m330.25765,15.47038s-4.04608-13.80366-21.12954-12.58142c-17.08346,1.22224-10.33999,18.95354-10.33999,18.95354,0,0,20.67998,5.85027,31.46953-6.37212Z"></path><path fill="#141414" d="m321.26636,20.21285s-16.18433-26.82015-36.41474-18.6719c-20.23041,8.14826-13.03738,32.11652-20.67998,35.37583-7.6426,3.2593-10.33999-.81483-10.33999-.81483,0,0,4.94521,18.33358,31.46953,11.00015,26.52432-7.33343,35.96518-26.88925,35.96518-26.88925Z"></path><path fill="#7c4b33" d="M284.77373 133.86333c30.12084 6.29071 54.39733-22.01748 54.39733-22.01748-10.33999-6.74005-16.63389-46.73098-16.63389-46.73098l-6.10051-.25163-33.01162 3.84632v.07638c.35517 13.41718-1.78026 22.58365-4.45526 28.73956-.11678.27409-.24278.54368-.36856.8043-4.05508 8.45202-11.81007 11.26936-11.81007 11.26936 0 0-12.6642 17.86562 17.98259 24.26416zM24.10408 144.87926s4.04608 11.23341 31.01997 8.08805c26.97388-3.14535 51.69994-29.20686 41.35995-44.4843-10.33999-15.27744-49.00255-44.03497-60.69124-39.99094-11.68868 4.04403-11.68868 76.38719-11.68868 76.38719z"></path><path fill="#683b2a" d="m346.44198,29.39981s-2.69739,22.46682-9.89042,28.30819c-7.19304,5.84137-15.2852-25.61217-15.2852-25.61217l25.17562-2.69602Z"></path><path d="m278.60121,98.3298c23.92132,1.79735,38.09161-30.06958,38.09161-30.06958.09-1.33454-.00439-2.45788-.25617-3.39698l-33.01162,3.9227c.35517,13.41718-1.78026,22.58365-4.45526,28.73956-.11678.27409-.24278.54368-.36856.8043Z"></path><path fill="#7c4b33" d="m339.85625,50.48244c-2.35022-3.27961-6.15669-4.9672-10.17964-4.94836-3.31668-17.08891-15.56173-26.68601-30.54399-25.21449-16.21866,1.59295-29.49432,15.54616-27.54639,35.35897,1.94793,19.81276,5.52643,35.67781,21.74514,34.08486,9.08214-.89202,20.19969-7.07109,27.88514-15.81367,5.22632-.39594,11.02128-2.39368,14.48738-4.875,6.37906-4.56673,8.2382-12.89079,4.15237-18.5923Z"></path><path d="m337.01847,61.39402c-1.98441-3.32263-4.99219-6.09018-8.46841-7.79274l.51015-1.04085c3.67598,1.79998,6.85586,4.72615,8.95398,8.23944l-.99572.59414Z"></path><path fill="#fff" d="m334.51098,57.19547l-1.68949,5.2387"></path><polygon points="333.373 62.612 332.269 62.256 333.959 57.018 335.063 57.373 333.373 62.612"></polygon><ellipse cx="300.204" cy="51.339" rx="1.844" ry="2.571" transform="rotate(-5.621 300.204 51.339)"></ellipse><ellipse cx="281.076" cy="52.597" rx="1.844" ry="2.571" transform="rotate(-5.621 281.076 52.597)"></ellipse><path d="M282.85382 65.70989l-.51718-1.03734c2.96827-1.47965 5.27273-4.13223 6.322-7.2778 1.04884-3.14557.79815-6.64965-.6884-9.61334l1.03698-.51955c1.62309 3.23706 1.89748 7.06388.75162 10.49951-1.14586 3.43562-3.66281 6.33262-6.90503 7.94851zM291.30204 73.67442l-.15454-1.14879c4.67301-.62639 8.9171-4.20573 10.32111-8.7048l1.10723.34534c-1.55767 4.99229-6.08844 8.8134-11.2738 9.50825z"></path><path d="m291.17428,90.45169c-2.37953,0-4.53955-.40699-6.44493-1.21659l.45395-1.06674c2.29919.97678,5.02072,1.32015,8.09129,1.01825,9.01808-.88595,20.07192-7.16283,27.50642-15.61949l.15585-.1775.23576-.01777c5.03916-.38198,10.74302-2.29824,14.19378-4.76849,6.10864-4.37313,7.91129-12.35083,4.01842-17.78345-2.14509-2.99331-5.656-4.7064-9.64018-4.7064-.02195,0-.04346,0-.06542.00022l-.4803.00219-.09176-.4715c-3.20359-16.50434-14.94232-26.21509-29.918-24.74795l-.11327-1.15362c15.46696-1.51827,27.62277,8.3645,31.07748,25.21703,4.19491.11387,7.88275,1.98691,10.17447,5.18514,4.26516,5.95217,2.34265,14.65543-4.28623,19.40089-3.55393,2.54441-9.37105,4.52518-14.54544,4.96289-7.72645,8.70501-18.73596,14.91082-28.10833,15.83143-.75688.07438-1.49577.11146-2.21358.11146Z"></path><path fill="#683b2a" d="m315.87158,36.58919s7.19304,9.43606,5.39478,16.62545h2.69739s2.24782-8.53739,10.78955-8.53739-1.79826-15.27744-1.79826-15.27744l-17.08346,7.18938Z"></path><path fill="#141414" d="m345.54285,31.52474s-9.71132.94532-14.83564,2.81777c-6.74347,2.4641-16.7663,7.08472-18.43215,1.34801-2.24782-7.74085-5.84434-7.32941-17.08346-7.73682,0,0,11.68868-16.69503,28.77214-18.32469,17.08346-1.62965,23.82693,5.69489,23.82693,13.84314s-2.24782,8.05259-2.24782,8.05259Z"></path><path fill="#141414" d="m306.88028,19.51441s-8.54173,12.106-20.23041,14.55048c-11.68868,2.44448-14.83564,14.65638-14.83564,14.65638-4.5975,1.09789-9.79494-31.71091,35.06605-29.20686Z"></path><path fill="#ffcc83" d="M341.94633 112.07771c-1.1463 2.35463-2.603 4.46199-4.26647 6.35368-.29656.346-.60674.683-.92591 1.01101-2.783 2.91608-6.05573 5.27071-9.37347 7.15779-.31917.1843-.64296.36399-.96213.53468-3.93369 2.13435-7.88077 3.63067-11.12234 4.64168-.33256.10334-.66074.20229-.97991.30102-3.8843 1.15033-6.53669 1.56829-6.53669 1.56829-5.52956-8.98234-3.08856-22.21078-1.66348-27.84986.40017-1.59067 1.70387-2.78597 3.31795-3.09138.87652-.16631 1.73526-.3596 2.576-.57966.33256-.08996.66074-.17969.98452-.27403 4.22147-1.2269 7.97516-3.078 11.09534-4.98768.32356-.20229.64713-.39997.95752-.60226 5.51617-3.54511 8.8069-7.09943 8.8069-7.09943.19339-.02699.38656-.03137.57096-.0136.35956.03159.70135.14832 1.02952.34161 5.0036 2.88931 6.49169 22.58815 6.49169 22.58815zM283.8357 107.73705c-4.85543 22.49841-2.58061 25.90881-2.58061 25.90881 0 0-4.66643-.77734-9.47686-3.59469l-.93513-.57527c-2.594-1.66241-5.14738-3.94946-6.95025-7.04984l-.00439-.0136c-.28317-.48971-.55296-.9974-.79574-1.53231v-.00439c-1.3173-2.87571-2.00504-6.36267-1.61848-10.59539.81813-8.99112 3.06595-14.33379 5.34078-17.49274v-.00439c.40478-.55728.80474-1.04699 1.20491-1.47833 2.486-2.70501 4.69343-3.04202 4.69343-3.04202-2.99417 3.38801-.84974 6.33569 2.459 8.56438.30139.20668.61157.40436.93074.59305 1.10591.66501 2.29721 1.25827 3.43913 1.76597 3.27734 1.45574 5.0486 5.04604 4.29347 8.55077z"></path><path fill="#7c4b33" d="m75.35446,139.47923s-7.6426-9.66374,3.14695-51.21635c0,0-10.30079-32.05772,2.24782-35.87109,7.6426-2.3225,10.33999,2.21616,11.23912,13.85361.89913,11.63745,4.04608,15.27744,13.93651,31.90288,5.15718,8.66903-.44956,49.96519-.44956,49.96519,0,0-27.87301,10.13584-30.12084-8.63424Z"></path><path fill="#8ea0c1" d="m82.95497,117.45151L55.95934,19.08895c-.08189-.29843-.18706-.57974-.305-.8496l2.84114-1.17977-6.35432-1.77659-.00499.00247c-.61966-.09684-1.26195-.04542-1.89153.18679L5.8755,31.84139c-2.36815.8735-3.64903,3.90935-2.86109,6.7805l26.9957,98.36238c.63587,2.317,2.42486,3.81651,4.33626,3.85096l4.22315-.0336-.12139-1.20529,41.64575-15.36433c2.36813-.87367,3.64912-3.90936,2.86109-6.7805Z"></path><path fill="#b8c2d8" d="m85.03955,124.39988l-44.38004,16.26088c-2.36871.8679-4.92528-.73185-5.71026-3.57313L8.05671,39.74908c-.78498-2.84128.49888-5.84817,2.86758-6.71606l44.38004-16.26088c2.36871-.8679,4.92528.73185,5.71026,3.57313l26.89253,97.33855c.78498,2.84128-.49888,5.84817-2.86758,6.71606Z"></path><path fill="#141414" d="m81.20362,121.99959l-38.61778,14.14958c-2.36871.8679-4.92528-.73185-5.71026-3.57313L11.89264,42.14937c-.78498-2.84128.49888-5.84817,2.86758-6.71606l38.61778-14.14958c2.36871-.8679,4.92528.73185,5.71026,3.57313l24.98293,90.42667c.78498,2.84128-.49888,5.84817-2.86758,6.71606Z"></path><path fill="#b8c2d8" d="m20.58033,32.10049l3.69233,2.32778c.51557.32504,1.16593.39045,1.75632.17664l19.5162-7.0675c.77476-.28057,1.30876-.98964,1.34518-1.78619l.15943-3.48744-26.46947,9.8367Z"></path><path fill="#7c4b33" d="m10.63751,93.82753s-19.98174-30.42401-5.17307-34.5656,12.05649,30.02683,12.05649,30.02683l-6.88342,4.53877Z"></path><path fill="#7c4b33" d="m3.66741,102.73007s-6.95168-15.57125,4.77665-20.33518c8.77576-3.56463,22.16185,6.32124,28.34548,11.52463,3.09973,2.60835,5.29592,6.1704,6.01912,10.15532.97835,5.3909-.54395,11.79558-13.48629,11.48649-22.18687-.52987-25.65496-12.83126-25.65496-12.83126Z"></path><path fill="#7c4b33" d="m23.20927,135.07313c-6.53415,1.09148-12.87432-2.77497-14.84582-9.09639-2.3303-7.47189-4.18197-17.10472.62115-19.70541,8.14906-4.41238,31.8023,1.84297,31.55922,13.15436-.18011,8.38084-7.32962,13.97619-17.33455,15.64744Z"></path><path fill="#ffcc83" d="m375.98497,388.13573c-17.89397-7.77704-29.42656-19.93309-37.52691-34.45185-2.14387-3.84259-1.61115-8.62133,1.36251-11.8653l21.04999-22.96343,47.78823,43.76181-21.13187,23.05272c-2.92828,3.19445-7.5668,4.19371-11.54195,2.46604Z"></path><path fill="#112e5b" d="m496.71759,273.65793l-1.11102.92782c-10.2491,7.34111-32.27777,8.23978-49.0065-4.38903-36.05232-24.38067-59.66545-56.7353-77.54662-92.76405-12.32022-14.73793-10.35428-36.66769,4.3911-48.98164l1.11102-.92782c14.74538-12.31395,36.68638-10.34896,49.00659,4.38893l77.54659,92.76409c12.32021,14.73789,10.35422,36.66774-4.39116,48.9817Z"></path><path fill="#112e5b" d="m497.43729,220.54262l1.05153.99466c13.95589,13.20112,13.39298,31.63205,6.19994,51.40285-21.39976,36.21392-55.27451,65.26172-93.04585,90.91273-10.35404,6.59327-18.39313,9.49218-27.66374,4.80489-13.28866-6.71884-21.68281-15.54057-27.42487-25.50174-5.18642-8.99725-2.91929-17.19419,3.27738-27.86988,22.32501-36.73347,50.72706-68.70371,88.42135-93.38978,17.77317-10.06597,35.22837-14.55485,49.18427-1.35373Z"></path><polygon fill="#ffcc83" points="454.338 780.241 366.672 780.241 362.626 726.77 450.291 726.77 454.338 780.241"></polygon><polygon fill="#ffcc83" points="307.33 780.241 219.665 780.241 215.619 726.77 303.284 726.77 307.33 780.241"></polygon><path fill="#112e5b" d="m110.4917,310.50594l-.00373-.00295c-17.49682-13.86885-20.43181-39.29841-6.55431-56.78837l96.93868-122.17285c13.8678-17.47773,39.2757-20.41022,56.76029-6.55107l.00373.00295c17.49682,13.86885,20.43181,39.29841,6.55431,56.78837l-96.93868,122.17285c-13.8678,17.47773-39.2757,20.41022-56.76029,6.55107Z"></path><path fill="#ffcc83" d="m118.04264,155.31394l-61.60419,35.54913-12.7539-22.07918c-4.37689-7.57714-1.78026-17.26789,5.79881-21.64144l34.16649-19.71601c7.57435-4.37083,17.25775-1.77617,21.63192,5.79626l12.76087,22.09125Z"></path><path fill="#112e5b" d="m154.02828,313.38041l.11702.04592c-19.09853,10.83593-43.27247-2.34678-51.31924-9.85137-29.71943-42.76691-45.90376-64.78439-54.89505-103.87666-1.79826-24.26416-6.51072-22.8643,12.58781-33.70023l27.87301-16.17611c19.09853-10.83593,29.22171-4.04403,40.91039,15.27744,31.46953,48.97767,39.69127,52.99453,50.62763,94.7291,3.03752,22.11751-6.80304,42.71598-25.90157,53.55191Z"></path><path fill="#7c4b33" d="m18.73714,131.952s-.39049,19.00138,17.05849,17.28759c17.44898-1.71379,19.8929-18.20785,15.29466-23.62573-4.19424-4.94187-18.10846-4.99394-32.35315,6.33815Z"></path><path fill="#ff9996" d="m24.01501,137.75781"></path><rect width="130.823" height="51.224" x="337.001" y="693.968" fill="#112e5b" rx="11.129" ry="11.129"></rect><rect width="130.823" height="51.224" x="190.893" y="693.968" fill="#112e5b" rx="12.97" ry="12.97"></rect><path fill="#f2f2f2" d="m327.1107,842.69867H92.43792c0-3.415.13939-6.75354.42706-9.97974.0315-.39098.0675-.77285.10789-1.15932,2.29282-23.1858,12.00786-40.59298,29.13632-41.70294,8.57323-.55267,22.29845-3.9092,36.09118-8.92376.64274-.23366,1.28108-.46733,1.92404-.70999,7.37282-2.76337,14.70063-5.98508,21.19693-9.48993.44517-.23816.88113-.48082,1.32169-.72798h.00461c8.21356-4.56072,14.96142-9.57089,18.58494-14.66179,12.13825-17.04791-2.24782-15.76725,35.51561-19.6046,37.76344-3.83285,42.25908,28.124,42.25908,28.124,7.28304-10.5684,16.63828-15.3539,24.10571-17.49724,5.75434-1.65353,11.43229,2.75449,11.34251,8.73968-.099,6.48839.87213,15.97382,5.0126,28.36206,5.46678,16.36041,7.06703,36.04575,7.51221,48.09249.01361.39547.027.78184.036,1.15932.19778,6.11102.09439,9.97974.09439,9.97974Z"></path><path d="M205.89462 797.36067l-.52157 1.03339c-15.02003-7.54876-30.86257-13.40813-47.17269-17.46115.64274-.23366 1.28108-.46733 1.92404-.70999 15.81577 4.05302 31.17736 9.80455 45.77021 17.13775zM216.05021 791.36648l-.79574.84481c-9.79142-9.26087-21.38571-16.58508-33.93314-21.4783.44517-.23816.88113-.48082 1.32169-.72798h.00461c12.34042 4.9472 23.74132 12.22193 33.40257 21.36147zM327.01631 832.71892H92.86498c.0315-.39098.0675-.77285.10789-1.15932h234.00743c.01361.39547.027.78184.036 1.15932zM280.00146 788.75203l-1.09494-.22379c1.62748-7.95641 1.33816-16.2981-.83591-24.12331l1.0765-.29927c2.22148 7.99503 2.51695 16.5175.85435 24.64636z"></path><path fill="#f2f2f2" d="m484.00878,851.68539h-211.29542c-.04039-2.97005-.09-5.68406-.11239-8.1824-.00439-.39098-.00439-.77734-.009-1.15932-.15278-24.77186,3.00756-27.59371,48.22482-48.17334,4.78343-2.17933,9.04068-4.38553,12.83059-6.59173.44056-.25615.87674-.5168,1.30369-.77296h.00461c3.25034-1.95005,6.13651-3.90021,8.70351-5.83677.32817-.24716.65174-.49431.96652-.73697,23.70115-18.38681,18.67494-35.03924,18.67494-35.03924,0,0,8.31695-2.24668,29.44649-4.04403,21.12954-1.79735,22.9278,19.7708,22.9278,19.7708,27.42345-21.56815,36.86431-15.72677,36.86431-15.72677,0,0-3.14695,11.23341,11.23912,35.94691,10.34899,17.78027,16.27872,46.49282,18.79172,61.20409.06761.39547.13039.78184.19339,1.15932.84513,5.05953,1.2453,8.1824,1.2453,8.1824Z"></path><path d="M359.96031 801.64275l-.77313.8628c-7.41782-6.63221-16.13933-11.71873-25.5398-14.92694.44056-.25615.87674-.5168 1.30369-.77296h.00461c9.18908 3.27129 17.7172 8.32172 25.00462 14.8371zM369.65295 800.79355l-.80913.83132c-7.80899-7.53538-16.25633-14.45972-25.18462-20.65598.32817-.24716.65174-.49431.96652-.73697 8.86551 6.17388 17.25424 13.06674 25.02723 20.56164zM482.76348 843.503h-210.1625c-.00439-.39098-.00439-.77734-.009-1.15932h209.97811c.06761.39547.13039.78184.19339 1.15932zM414.94507 786.96697l-1.1002-.19571c1.50499-8.46323 1.92689-17.10023 1.25343-25.67053l1.11425-.08776c.68049 8.66508.2542 17.3973-1.26747 25.954z"></path><path d="m272.04188,843.50919l-.00878-1.15888c-.08122-13.21549.91011-19.75588,7.26372-26.06151,6.43396-6.38505,18.07435-12.06143,41.28839-22.62654l.46274,1.01627c-45.36169,20.64534-48.04723,23.3181-47.89708,47.66169l.00878,1.15669-1.11777.01229Z"></path><polygon points="174.151 300.245 173.017 300.005 204.037 153.521 205.171 153.761 174.151 300.245"></polygon><path d="M198.83439 177.45971c-1.68236-7.56368-2.09855-15.30267-1.2363-23.00194l1.15289.12901c-.8482 7.57202-.43903 15.18287 1.21523 22.6215l-1.13181.25144zM416.38552 246.16233c-12.25635-12.4285-22.42819-25.10009-31.09636-38.73903l-.06234-.13296c-.03512-.10926-3.5434-11.0829-5.2139-24.77384-2.80232-22.97013 1.62836-35.83216 5.83907-42.57726 4.97594-7.97133 12.70196-12.7633 22.9638-14.24295l.16595 1.14748c-9.90755 1.42831-17.35829 6.04037-22.14501 13.70761-14.01553 22.44971-1.1485 64.33848-.52815 66.31398 8.61505 13.54438 18.72455 26.13347 30.90318 38.48298l-.82625.81398z"></path><path d="m360.1952,315.71073l-.98254-.61652c23.16224-36.85611,47.20869-63.74938,75.67482-84.63431l.68664.93465c-28.34497,20.79563-52.29702,47.58775-75.37892,84.31617Z"></path><path d="m417.37904,245.47933l-1.1362-.23344c1.27362-6.19154,5.35834-11.67726,10.92653-14.67452l.54966,1.02066c-5.26921,2.83644-9.13486,8.02794-10.33999,13.8873Z"></path><polygon points="166.375 222.553 148.679 195.151 149.654 194.522 167.35 221.924 166.375 222.553"></polygon><path d="M176.54669 221.13793c-5.9159-10.48547-15.10256-19.23239-25.86797-24.62947l.51981-1.03624c10.96955 5.49932 20.33051 14.41211 26.3588 25.09614l-1.01064.56957zM369.26069 178.42706h-52.03229l1.11777-10.00805h52.03229l-1.11777 10.00805zm-50.91452-.9996h50.01978l.89474-8.00885h-50.01978l-.89474 8.00885zM255.56998 176.33725h-44.27554l1.50104-9.22719h44.2751l-1.5006 9.22719zm-43.19202-.92149h42.40791l1.20118-7.38421h-42.40747l-1.20162 7.38421z"></path><path d="m249.54828,213.35178h-44.27554l6.17142-37.93601h44.27554l-6.17142,37.93601Zm-43.19202-.92149h42.40791l5.872-36.09303h-42.40791l-5.872,36.09303Z"></path><path fill="#b8c2d8" d="m347.58678,333.34643s3.35084,46.08643,59.996,55.52249c0,0-8.54173,21.11881-68.33384,17.97346-59.79211-3.14535-5.35299-58.92196,8.33784-73.49595Z"></path><path d="M398.1281 385.58539c-13.1603-1.61897-25.46977-7.77168-34.66082-17.3249-9.19105-9.55344-14.86022-22.08813-15.96306-35.29507l.91845-.07679c1.08572 12.99675 6.66445 25.332 15.7093 34.7334 9.04442 9.40096 21.15764 15.45559 34.10853 17.04889l-.11239.91447zM314.63374 388.49687l-.90176-.19176c4.55492-21.38319 16.35643-40.82072 33.23003-54.73237l.58654.71086c-16.7138 13.77958-28.40336 33.03303-32.91481 54.21327z"></path><polygon points="428.253 694.013 397.233 374.984 398.151 374.895 429.171 693.924 428.253 694.013"></polygon><polygon points="289.424 396.137 270.09 393.781 255.855 333.032 256.753 332.822 270.841 392.944 288.371 395.081 280.797 330.959 281.713 330.851 289.424 396.137"></polygon><path d="M4.80946 85.353l-.66425-.63912c.05093-.05288 5.17087-5.26434 12.2783-3.0701 2.90988.89801 5.28282 1.79054 7.46787 2.80835l-.38986.83505c-2.14553-.9996-4.48116-1.87765-7.35021-2.76316-6.55557-2.02333-11.29444 2.78049-11.34185 2.82898zM28.66273 116.42785c-12.12552 0-21.66999-7.95927-21.79028-8.06151l.59708-.70209c.14839.12594 15.0433 12.53512 31.0327 5.88503l.35386.85084c-3.4951 1.45376-6.93752 2.02772-10.19335 2.02772zM19.98139 135.56129c-.79025 0-1.26001-.03905-1.28767-.04147l.08473-.91754c.16112.01492 16.00565 1.30369 20.92188-12.2341l.86664.31418c-4.31257 11.8745-16.57243 12.87893-20.58559 12.87893zM35.1362 150.11865c-5.51112 0-9.60198-2.46389-9.67486-2.50887l.48513-.78349c.50576.31177 12.49035 7.49523 22.93746-4.34505l.69103.6095c-4.84248 5.48813-10.08404 7.0279-14.43875 7.0279z"></path></symbol><symbol id="g" viewBox="0 0 512.573 451.724"><rect width="276.145" height="15.853" x="15.411" y="193.348" fill="#7c4b33"></rect><path d="m292.08362,209.72833H14.8827v-16.90858h277.20092v16.90858Zm-276.14494-1.05592h275.08896v-14.79674H15.93867v14.79674Z"></path><rect width="185.331" height="15.853" x="298.413" y="193.348" fill="#ffbc97"></rect><path d="m484.27168,209.72833h-186.38678v-16.90858h186.38678v16.90858Zm-185.3308-1.05592h184.27482v-14.79674h-184.27482v14.79674Z"></path><rect width="265.95" height="168.879" x="25.764" y="24.469" fill="#ffbc97"></rect><path d="m292.24201,193.87567H25.23623V23.94057h267.00578v169.9351Zm-265.9498-1.05592h264.89382V24.9965H26.29221v167.82325Z"></path><rect width="212.242" height="168.879" x="291.714" y="24.469" fill="#fad0c9"></rect><path d="m504.48459,193.87567h-213.29856V23.94057h213.29856v169.9351Zm-212.24258-1.05592h211.1866V24.9965h-211.1866v167.82325Z"></path><rect width="33.001" height="434.815" x="269.066" y="16.381" fill="#112e5b" rx="10.312" ry="10.312"></rect><path fill="#112e5b" d="m15.41074,16.38055h33.00111v424.50335c0,5.69127-4.62059,10.31186-10.31186,10.31186h-12.37738c-5.69127,0-10.31186-4.62059-10.31186-10.31186V16.38055h0Z"></path><path d="M291.75527 451.72356h-12.37681c-5.97742 0-10.84028-4.86261-10.84028-10.83929V26.69216c0-5.97689 4.86286-10.8395 10.84028-10.8395h12.37681c5.97742 0 10.84028 4.86261 10.84028 10.8395v414.19211c0 5.97669-4.86286 10.83929-10.84028 10.83929zm-12.37681-434.81498c-5.39498 0-9.7843 4.38889-9.7843 9.78358v414.19211c0 5.39469 4.38932 9.78337 9.7843 9.78337h12.37681c5.39498 0 9.7843-4.38868 9.7843-9.78337V26.69216c0-5.39469-4.38932-9.78358-9.7843-9.78358h-12.37681zM38.09978 451.72356h-12.37681c-5.97742 0-10.84028-4.86261-10.84028-10.83929V15.85266h34.05695v425.03161c0 5.97669-4.86286 10.83929-10.83987 10.83929zM15.93867 16.90858v423.97569c0 5.39469 4.38932 9.78337 9.7843 9.78337h12.37681c5.39498 0 9.78389-4.38868 9.78389-9.78337V16.90858H15.93867z"></path><rect width="511.517" height="32.029" x=".528" y=".528" fill="#112e5b"></rect><path d="m512.57314,33.08462H0V0h512.57314v33.08462ZM1.05598,32.0287h510.46118V1.05592H1.05598v30.97277Z"></path><path fill="#b8c2d8" d="m470.95541,16.38055h33.00111v424.50335c0,5.69127-4.62059,10.31186-10.31186,10.31186h-12.37738c-5.69127,0-10.31186-4.62059-10.31186-10.31186V16.38055h0Z"></path><path d="m493.64431,451.72356h-12.37681c-5.97742,0-10.84028-4.86261-10.84028-10.83929V15.85266h34.05736v425.03161c0,5.97669-4.86286,10.83929-10.84028,10.83929Zm-22.16111-434.81498v423.97569c0,5.39469,4.38932,9.78337,9.7843,9.78337h12.37681c5.39498,0,9.7843-4.38868,9.7843-9.78337V16.90858h-31.94541Z"></path><rect width="205.125" height="32.029" x="306.921" y=".528" fill="#b8c2d8"></rect><path d="m512.57314,33.08462h-206.1806V0h206.1806v33.08462Zm-205.12462-1.05592h204.06864V1.05592h-204.06864v30.97277Z"></path><rect width="67.774" height="16.5" x="119.028" y="56.821" fill="#112e5b" rx="8.25" ry="8.25"></rect><path d="m178.55233,73.8486h-51.27394c-4.84018,0-8.77823-3.93764-8.77823-8.77777s3.93806-8.77777,8.77823-8.77777h51.27394c4.84018,0,8.77823,3.93764,8.77823,8.77777s-3.93806,8.77777-8.77823,8.77777Zm-51.27394-16.49962c-4.25815,0-7.72225,3.46392-7.72225,7.72185s3.4641,7.72185,7.72225,7.72185h51.27394c4.25815,0,7.72225-3.46392,7.72225-7.72185s-3.4641-7.72185-7.72225-7.72185h-51.27394Z"></path></symbol><symbol id="h" viewBox="0 0 336.748 203.366"><polygon fill="#90d8e0" points="1.141 202.552 194.513 202.552 258.51 16.518 65.138 16.518 1.141 202.552"></polygon><path d="m195.09354,203.36593H0L64.55687,15.70398h195.09354l-64.55687,187.66195Zm-192.8117-1.62776h191.64989l63.43684-184.40643H65.71868L2.28184,201.73817Z"></path><polygon points="336.748 203.121 194.513 203.121 259.711 15.949 336.748 203.121"></polygon><path d="m242.00389,15.94862h-1.97331c0-7.70616-4.57654-13.97538-10.20241-13.97538s-10.20241,6.26922-10.20241,13.97538h-1.97331c0-8.79402,5.46196-15.94862,12.17572-15.94862s12.17572,7.1546,12.17572,15.94862Z"></path><path d="m226.03983,15.94862h-1.97331c0-7.70616-4.57654-13.97538-10.2016-13.97538-5.62587,0-10.20241,6.26922-10.20241,13.97538h-1.97331c0-8.79402,5.46196-15.94862,12.17572-15.94862,6.71296,0,12.17492,7.1546,12.17492,15.94862Z"></path><path d="m208.50901,15.94862h-1.97331c0-7.70616-4.57654-13.97538-10.20241-13.97538-5.62506,0-10.2016,6.26922-10.2016,13.97538h-1.97331c0-8.79402,5.46196-15.94862,12.17492-15.94862,6.71376,0,12.17572,7.1546,12.17572,15.94862Z"></path><path d="m189.33831,15.94862h-1.97331c0-7.70616-4.57654-13.97538-10.20241-13.97538-5.62506,0-10.2016,6.26922-10.2016,13.97538h-1.97331c0-8.79402,5.46196-15.94862,12.17492-15.94862,6.71376,0,12.17572,7.1546,12.17572,15.94862Z"></path><path d="m173.37506,15.94862h-1.97331c0-7.70616-4.57654-13.97538-10.20241-13.97538s-10.20241,6.26922-10.20241,13.97538h-1.97331c0-8.79402,5.46196-15.94862,12.17572-15.94862s12.17572,7.1546,12.17572,15.94862Z"></path><path d="m157.411,15.94862h-1.97331c0-7.70616-4.57654-13.97538-10.2016-13.97538-5.62587,0-10.20241,6.26922-10.20241,13.97538h-1.97331c0-8.79402,5.46196-15.94862,12.17572-15.94862,6.71296,0,12.17492,7.1546,12.17492,15.94862Z"></path><path d="m141.44774,15.94862h-1.97331c0-7.70616-4.57654-13.97538-10.20241-13.97538-5.62506,0-10.2016,6.26922-10.2016,13.97538h-1.97331c0-8.79402,5.46196-15.94862,12.17492-15.94862,6.71376,0,12.17572,7.1546,12.17572,15.94862Z"></path><path d="m125.48448,15.94862h-1.97331c0-7.70616-4.57654-13.97538-10.20241-13.97538s-10.20241,6.26922-10.20241,13.97538h-1.97331c0-8.79402,5.46196-15.94862,12.17572-15.94862s12.17572,7.1546,12.17572,15.94862Z"></path><path d="m109.52042,15.94862h-1.97331c0-7.70616-4.57654-13.97538-10.2016-13.97538-5.62587,0-10.20241,6.26922-10.20241,13.97538h-1.97331c0-8.79402,5.46196-15.94862,12.17572-15.94862,6.71296,0,12.17492,7.1546,12.17492,15.94862Z"></path><polygon fill="#fff" points="188.652 76.399 222.904 76.399 233.951 42.342 199.7 42.342 188.652 76.399"></polygon><path d="m223.6214,77.38583h-36.32629l11.68721-36.03053h36.32629l-11.68721,36.03053Zm-33.61219-1.97324h32.1772l10.4081-32.08404h-32.1772l-10.4081,32.08404Z"></path><polygon fill="#fff" points="145.585 76.399 179.837 76.399 190.884 42.342 156.633 42.342 145.585 76.399"></polygon><path d="m180.55483,77.38583h-36.32629l11.68641-36.03053h36.32629l-11.68641,36.03053Zm-33.61219-1.97324h32.1772l10.40729-32.08404h-32.1772l-10.40729,32.08404Z"></path><polygon fill="#fff" points="102.518 76.399 136.77 76.399 147.817 42.342 113.565 42.342 102.518 76.399"></polygon><path d="m137.48745,77.38583h-36.32629l11.68641-36.03053h36.32629l-11.68641,36.03053Zm-33.61219-1.97324h32.1772l10.40729-32.08404h-32.1772l-10.40729,32.08404Z"></path><polygon fill="#fff" points="59.451 76.399 93.703 76.399 104.75 42.342 70.498 42.342 59.451 76.399"></polygon><path d="m94.42008,77.38583h-36.32629l11.68721-36.03053h36.32629l-11.68721,36.03053Zm-33.61219-1.97324h32.1772l10.4081-32.08404h-32.1772l-10.4081,32.08404Z"></path><polygon fill="#fff" points="171.66 126.564 205.911 126.564 216.959 92.506 182.707 92.506 171.66 126.564"></polygon><path d="m206.6289,127.55042h-36.32629l11.68641-36.03053h36.32629l-11.68641,36.03053Zm-33.61219-1.97324h32.1772l10.40729-32.08404h-32.1772l-10.40729,32.08404Z"></path><polygon fill="#f90065" points="128.592 126.564 162.844 126.564 173.891 92.506 139.64 92.506 128.592 126.564"></polygon><path d="m163.56153,127.55042h-36.32629l11.68721-36.03053h36.32629l-11.68721,36.03053Zm-33.61219-1.97324h32.1772l10.4081-32.08404h-32.1772l-10.4081,32.08404Z"></path><polygon fill="#fff" points="85.525 126.564 119.777 126.564 130.824 92.506 96.573 92.506 85.525 126.564"></polygon><path d="m120.49496,127.55042h-36.32629l11.68641-36.03053h36.32629l-11.68641,36.03053Zm-33.61219-1.97324h32.1772l10.40729-32.08404h-32.1772l-10.40729,32.08404Z"></path><polygon fill="#fff" points="42.458 126.564 76.71 126.564 87.757 92.506 53.506 92.506 42.458 126.564"></polygon><path d="m77.42759,127.55042h-36.32629l11.68641-36.03053h36.32629l-11.68641,36.03053Zm-33.61219-1.97324h32.1772l10.40729-32.08404h-32.1772l-10.40729,32.08404Z"></path><polygon fill="#fff" points="154.667 176.728 188.918 176.728 199.966 142.671 165.714 142.671 154.667 176.728"></polygon><path d="m189.6356,177.715h-36.32549l11.68641-36.03053h36.32629l-11.68721,36.03053Zm-33.61138-1.97324h32.17639l10.4081-32.08404h-32.1772l-10.40729,32.08404Z"></path><polygon fill="#fff" points="111.6 176.728 145.851 176.728 156.899 142.671 122.647 142.671 111.6 176.728"></polygon><path d="m146.56903,177.715h-36.32629l11.68641-36.03053h36.32629l-11.68641,36.03053Zm-33.61219-1.97324h32.1772l10.40729-32.08404h-32.1772l-10.40729,32.08404Z"></path><polygon fill="#fff" points="68.533 176.728 102.784 176.728 113.832 142.671 79.58 142.671 68.533 176.728"></polygon><path d="m103.50166,177.715h-36.32629l11.68721-36.03053h36.32629l-11.68721,36.03053Zm-33.61219-1.97324h32.1772l10.4081-32.08404h-32.1772l-10.4081,32.08404Z"></path><polygon fill="#fff" points="25.465 176.728 59.717 176.728 70.765 142.671 36.513 142.671 25.465 176.728"></polygon><path d="m60.43509,177.715H24.10879l11.68641-36.03053h36.32629l-11.68641,36.03053Zm-33.61219-1.97324h32.1772l10.40729-32.08404h-32.1772l-10.40729,32.08404Z"></path></symbol></defs><use width="654.291" height="559.725" transform="translate(191.491 87) scale(1.41224)" xlink:href="#a"></use><use width="365.434" height="599.703" transform="translate(436.5 53)" xlink:href="#b"></use><use width="502.143" height="549.219" transform="translate(462 174.175) scale(.63884)" xlink:href="#c"></use><use width="807.803" height="553.071" transform="translate(293 144)" xlink:href="#d"></use><use width="509.663" height="851.685" transform="translate(730 295.8) scale(.73578)" xlink:href="#e"></use><use width="673.709" height="685.755" transform="translate(40 403.424) scale(.76294)" xlink:href="#f"></use><use width="512.573" height="451.724" transform="translate(358 690.633) scale(.51895)" xlink:href="#g"></use><use width="336.748" height="203.366" transform="translate(435 615) scale(.37172)" xlink:href="#h"></use></svg>